<svg width="390" height="403" viewBox="0 0 390 403" fill="none" xmlns="http://www.w3.org/2000/svg">
<rect x="45.0734" y="0.612524" width="393.108" height="310.38" rx="15.5" transform="rotate(15.0246 45.0734 0.612524)" fill="white" stroke="#676767"/>
<path d="M60.3462 287.544C62.552 268.504 62.4214 249.2 59.951 230.196C49.867 243.679 40.7182 257.858 32.587 272.602C31.6652 274.269 30.9537 276.764 32.589 277.735C46.845 273.931 61.0035 269.747 75.0443 265.197C76.0624 264.87 77.2057 264.42 77.5646 263.408C78.1145 261.856 76.4273 260.482 74.9741 259.708C61.4042 252.505 46.903 247.041 31.9516 243.503C42.3934 257.8 51.3011 273.208 58.4796 289.389" fill="#FF71D0"/>
<path d="M60.3462 287.544C62.552 268.504 62.4214 249.2 59.951 230.196C49.867 243.679 40.7182 257.858 32.587 272.602C31.6652 274.269 30.9537 276.764 32.589 277.735C46.845 273.931 61.0035 269.747 75.0443 265.197C76.0624 264.87 77.2057 264.42 77.5646 263.408C78.1145 261.856 76.4273 260.482 74.9741 259.708C61.4042 252.505 46.903 247.041 31.9516 243.503C42.3934 257.8 51.3011 273.208 58.4796 289.389" stroke="#282828" stroke-width="2.86285" stroke-linecap="round" stroke-linejoin="round"/>
<path d="M305.908 279.005C311.136 275.391 318.886 276.035 323.445 280.464C324.503 281.488 325.442 282.86 325.243 284.32C325.111 285.281 324.5 286.104 323.89 286.858C319.423 292.347 313.615 296.736 307.12 299.538C305.39 300.285 303.566 300.927 301.682 300.906C299.458 300.882 297.356 299.931 295.419 298.837C292.295 297.068 289.421 294.868 286.897 292.313C286.131 291.536 285.366 290.674 285.147 289.602C284.938 288.571 285.272 287.514 285.627 286.521C287.555 281.109 290.166 275.939 293.384 271.177C294.46 269.581 295.735 267.937 297.575 267.368C300.415 266.491 303.353 268.547 305.138 270.93C307.496 274.081 308.559 279.026 305.628 281.654" fill="#FF5252"/>
<path d="M305.908 279.005C311.136 275.391 318.886 276.035 323.445 280.464C324.503 281.488 325.442 282.86 325.243 284.32C325.111 285.281 324.5 286.104 323.89 286.858C319.423 292.347 313.615 296.736 307.12 299.538C305.39 300.285 303.566 300.927 301.682 300.906C299.458 300.882 297.356 299.931 295.419 298.837C292.295 297.068 289.421 294.868 286.897 292.313C286.131 291.536 285.366 290.674 285.147 289.602C284.938 288.571 285.272 287.514 285.627 286.521C287.555 281.109 290.166 275.939 293.384 271.177C294.46 269.581 295.735 267.937 297.575 267.368C300.415 266.491 303.353 268.547 305.138 270.93C307.496 274.081 308.559 279.026 305.628 281.654" stroke="#282828" stroke-width="2" stroke-miterlimit="10"/>
<path d="M102.874 273.579C98.921 272.57 97.6854 269.258 98.5694 265.793C99.4534 262.328 102.131 259.989 106.084 260.998C108.223 261.544 109.51 262.714 110.178 264.271L113.388 264.991L114.028 262.48C114.147 262.014 114.351 261.893 114.84 262.018L116.467 262.433C116.956 262.558 117.077 262.762 116.958 263.227L113.15 278.157C113.031 278.622 112.827 278.743 112.338 278.619L110.71 278.203C110.222 278.079 110.101 277.874 110.219 277.409L111.157 273.735L107.691 272.95C106.413 273.788 104.828 274.077 102.874 273.579ZM115.348 278.47L119.157 263.54C119.276 263.075 119.48 262.954 119.969 263.079L121.596 263.494C122.085 263.618 122.206 263.823 122.087 264.288L118.279 279.218C118.16 279.683 117.956 279.804 117.467 279.679L115.839 279.264C115.351 279.14 115.23 278.935 115.348 278.47ZM103.563 270.881C105.586 271.397 107.047 270.234 107.592 268.095C108.162 265.862 107.419 264.212 105.396 263.695C103.442 263.197 101.947 264.302 101.383 266.511C100.837 268.65 101.609 270.383 103.563 270.881ZM110.406 268.813C110.252 269.417 110.028 270.004 109.763 270.556L111.845 271.037L112.699 267.689L110.664 267.219C110.627 267.754 110.543 268.278 110.406 268.813ZM121.967 274.536L128.678 272.31C129.191 272.144 129.244 272.132 129.38 271.597L130.744 266.249C130.863 265.784 131.067 265.662 131.556 265.787L133.184 266.202C133.672 266.327 133.793 266.531 133.675 266.996L132.322 272.298C132.186 272.833 132.22 272.892 132.597 273.26L137.579 278.197C137.956 278.566 137.955 278.763 137.598 279.094L136.37 280.316C136.001 280.692 135.868 280.634 135.491 280.265L130.034 274.86L122.781 277.27C122.367 277.437 122.158 277.285 121.992 276.772L121.539 275.343C121.378 274.906 121.46 274.679 121.967 274.536ZM121.548 279.383L135.514 282.698C135.956 282.811 136.066 282.963 135.941 283.451L135.574 284.893C135.437 285.428 135.245 285.503 134.849 285.402L120.837 282.075C120.442 281.974 120.308 281.816 120.445 281.281L120.813 279.839C120.937 279.351 121.106 279.27 121.548 279.383ZM153.921 284.942L148.851 283.748L148.263 286.05L153.775 287.357C154.217 287.47 154.327 287.622 154.202 288.11L153.835 289.552C153.698 290.087 153.506 290.161 153.11 290.061L139.098 286.733C138.703 286.633 138.569 286.475 138.706 285.94L139.074 284.498C139.198 284.01 139.367 283.929 139.809 284.042L145.321 285.349L145.909 283.047L140.792 281.84C140.397 281.74 140.287 281.588 140.4 281.047L141.774 274.883C141.876 274.389 142.062 274.337 142.51 274.427L153.704 276.664L154.326 274.519L142.93 271.81C142.535 271.709 142.402 271.551 142.538 271.016L142.906 269.574C143.03 269.086 143.2 269.005 143.641 269.118L157.445 272.392C157.886 272.504 158.02 272.662 157.872 273.145L156.096 279.329C155.936 279.858 155.773 279.916 155.371 279.838L144.247 277.619L143.794 279.684L154.586 282.238C155.028 282.351 155.137 282.503 155.013 282.991L154.645 284.433C154.509 284.968 154.316 285.043 153.921 284.942ZM176.28 277.791L181.885 279.122C182.327 279.235 182.437 279.387 182.312 279.875L181.944 281.317C181.808 281.852 181.616 281.926 181.22 281.826L175.592 280.489L175.088 282.466C174.951 283 174.986 283.059 175.363 283.427L180.345 288.364C180.721 288.733 180.72 288.931 180.364 289.261L179.135 290.483C178.767 290.86 178.633 290.801 178.257 290.432L172.799 285.027L165.547 287.437C165.133 287.604 164.924 287.452 164.757 286.939L164.304 285.51C164.143 285.073 164.226 284.846 164.733 284.703L171.444 282.477C171.957 282.311 172.009 282.299 172.146 281.765L172.65 279.788L166.975 278.439C166.58 278.338 166.447 278.181 166.583 277.646L166.951 276.204C167.076 275.716 167.245 275.635 167.687 275.748L173.338 277.09L173.718 275.602C173.837 275.137 174.041 275.016 174.529 275.14L176.157 275.555C176.645 275.68 176.767 275.884 176.648 276.349L176.28 277.791ZM164.136 290.248L169.648 291.555L170.568 287.95C170.686 287.485 170.891 287.364 171.379 287.489L173.007 287.904C173.495 288.029 173.616 288.233 173.498 288.698L172.59 292.256L178.102 293.563C178.544 293.676 178.654 293.828 178.529 294.316L178.161 295.758C178.025 296.293 177.832 296.367 177.437 296.267L163.425 292.94C163.029 292.839 162.896 292.681 163.033 292.146L163.4 290.704C163.525 290.216 163.694 290.135 164.136 290.248ZM198.423 299.664L200.012 293.431L197.629 292.873L195.991 299.291C195.873 299.756 195.668 299.877 195.18 299.753L193.552 299.337C193.064 299.213 192.942 299.009 193.061 298.543L196.87 283.614C196.988 283.149 197.193 283.027 197.681 283.152L199.309 283.567C199.797 283.692 199.919 283.896 199.8 284.361L198.317 290.175L200.701 290.734L202.231 284.734C202.35 284.269 202.554 284.147 203.043 284.272L204.671 284.687C205.159 284.812 205.28 285.016 205.161 285.481L201.353 300.411C201.234 300.876 201.03 300.997 200.541 300.873L198.913 300.458C198.425 300.333 198.304 300.129 198.423 299.664ZM190.729 296.908L190.361 298.35C190.242 298.815 190.044 298.913 189.55 298.812L181.7 297.057C181.206 296.956 181.09 296.728 181.209 296.263L185.023 280.344C185.141 279.878 185.34 279.78 185.834 279.882L194.405 281.821C194.899 281.922 195.014 282.15 194.896 282.615L194.528 284.056C194.409 284.522 194.211 284.62 193.716 284.518L187.46 283.12L184.638 294.859L190.238 296.114C190.732 296.216 190.848 296.443 190.729 296.908ZM218.759 306.957L209.315 305.043L209.148 305.793L218.149 307.891C218.591 308.004 218.701 308.156 218.576 308.644L218.339 309.574C218.214 310.063 218.045 310.143 217.603 310.031L206.312 307.398C205.87 307.285 205.783 307.139 205.884 306.645L206.623 303.167C206.724 302.673 206.911 302.622 207.359 302.711L216.954 304.614L217.196 303.859L207.172 301.499C206.73 301.387 206.621 301.235 206.745 300.747L206.982 299.816C207.107 299.328 207.276 299.247 207.718 299.36L220.172 302.29C220.614 302.402 220.747 302.56 220.6 303.043L219.494 306.501C219.347 306.983 219.207 307.046 218.759 306.957ZM210.346 298.767C206.695 297.836 204.923 295.947 205.582 293.366C206.24 290.784 208.706 289.952 212.357 290.884C216.008 291.815 217.775 293.727 217.116 296.308C216.458 298.89 213.997 299.699 210.346 298.767ZM224.237 297.035L222.475 296.66L221.473 300.59C221.354 301.055 221.15 301.177 220.662 301.052L219.034 300.637C218.545 300.512 218.424 300.308 218.543 299.843L221.224 289.331C221.343 288.866 221.547 288.745 222.036 288.87L223.663 289.285C224.152 289.41 224.273 289.614 224.154 290.079L223.164 293.963L224.926 294.338C225.373 294.427 225.477 294.602 225.353 295.091L224.973 296.579C224.848 297.067 224.685 297.125 224.237 297.035ZM207.423 285.761L211.603 286.753L211.953 285.381C212.072 284.916 212.276 284.795 212.764 284.919L214.392 285.335C214.881 285.459 215.002 285.663 214.883 286.129L214.551 287.431L218.691 288.388C219.133 288.501 219.243 288.653 219.118 289.141L218.75 290.583C218.614 291.118 218.421 291.192 218.026 291.091L206.711 288.453C206.316 288.352 206.183 288.194 206.319 287.659L206.687 286.217C206.812 285.729 206.981 285.648 207.423 285.761ZM210.945 296.418C212.62 296.846 213.861 296.642 214.139 295.549C214.418 294.456 213.433 293.66 211.758 293.233C210.084 292.805 208.837 293.032 208.558 294.125C208.279 295.218 209.271 295.991 210.945 296.418ZM227.689 292.764L228.057 291.322C228.176 290.857 228.374 290.759 228.868 290.86L237.672 292.859C238.166 292.96 238.322 293.223 238.163 293.653L235.805 299.788L238.898 300.478L240.369 294.711C240.488 294.246 240.692 294.125 241.181 294.249L242.809 294.665C243.297 294.789 243.418 294.993 243.3 295.459L239.491 310.388C239.372 310.853 239.168 310.975 238.679 310.85L237.052 310.435C236.563 310.31 236.442 310.106 236.561 309.641L238.21 303.176L234.791 302.403L232.233 309.032C232.044 309.479 231.84 309.601 231.352 309.476L229.724 309.061C229.235 308.936 229.114 308.732 229.303 308.285L234.431 294.979L228.18 293.558C227.686 293.457 227.57 293.229 227.689 292.764ZM241.69 310.702L245.498 295.772C245.617 295.307 245.821 295.185 246.31 295.31L247.938 295.725C248.426 295.85 248.547 296.054 248.428 296.519L244.62 311.449C244.501 311.914 244.297 312.036 243.808 311.911L242.18 311.496C241.692 311.371 241.571 311.167 241.69 310.702ZM247.056 312.789C247.287 311.882 248.122 311.426 249.076 311.669C249.982 311.901 250.52 312.707 250.289 313.614C250.057 314.521 249.205 314.947 248.298 314.716C247.345 314.473 246.825 313.696 247.056 312.789ZM248.28 308.866L251.282 297.099C251.406 296.61 251.588 296.483 252.122 296.62L253.704 297.023C254.239 297.159 254.337 297.358 254.212 297.846L251.21 309.613C251.085 310.102 250.904 310.229 250.37 310.092L248.788 309.689C248.253 309.553 248.155 309.354 248.28 308.866Z" fill="#4F4F4F"/>
<path d="M80.7421 73.8072L84.6149 59.5125L79.7261 58.1026C79.2419 57.963 79.0973 57.7714 79.237 57.2871L79.6559 55.8343C79.7956 55.3501 80.0133 55.288 80.4976 55.4276L93.5035 59.1786C93.9878 59.3182 94.139 59.4867 93.9993 59.971L93.5804 61.4238C93.4407 61.908 93.2163 61.9932 92.7321 61.8535L87.5435 60.3572L83.6477 74.6451C83.508 75.1294 83.3231 75.2509 82.7927 75.0979L81.2246 74.6457C80.6942 74.4927 80.6024 74.2914 80.7421 73.8072ZM92.4506 70.8144C91.7855 73.1205 92.618 75.084 94.6242 75.6626C96.6304 76.2412 98.4038 75.0292 99.0688 72.7232C99.7339 70.4171 98.8783 68.4469 96.8721 67.8683C94.8659 67.2897 93.1156 68.5084 92.4506 70.8144ZM89.7295 70.0297C90.8268 66.2248 93.9903 64.0898 97.6569 65.1472C101.346 66.2113 102.864 69.6963 101.767 73.5013C100.663 77.3293 97.5291 79.4478 93.8394 78.3837C90.1729 77.3263 88.6255 73.8577 89.7295 70.0297ZM102.454 81.3677C101.37 81.0551 100.806 80.068 101.098 79.0534C101.391 78.0387 102.394 77.5039 103.478 77.8165C104.516 78.1157 105.103 79.1095 104.811 80.1241C104.518 81.1388 103.492 81.667 102.454 81.3677ZM114.575 74.7223C116.118 69.3723 119.508 66.4533 123.52 67.6105C127.579 68.781 128.87 73.0501 127.327 78.4C125.778 83.7731 122.411 86.6987 118.352 85.5282C114.34 84.371 113.025 80.0953 114.575 74.7223ZM117.411 75.5403C116.234 79.622 116.818 82.1882 119.124 82.8533C121.453 83.525 123.314 81.6637 124.491 77.582C125.668 73.5004 125.084 70.9341 122.755 70.2624C120.449 69.5974 118.589 71.4587 117.411 75.5403ZM129.097 78.9104C130.64 73.5605 134.029 70.6414 138.042 71.7986C142.1 72.9691 143.392 77.2382 141.849 82.5882C140.3 87.9612 136.933 90.8869 132.874 89.7164C128.862 88.5592 127.547 84.2834 129.097 78.9104ZM131.933 79.7284C130.756 83.8101 131.34 86.3763 133.646 87.0414C135.975 87.7131 137.836 85.8518 139.013 81.7702C140.19 77.6885 139.606 75.1223 137.277 74.4506C134.971 73.7855 133.11 75.6468 131.933 79.7284ZM157.921 94.8917L162.191 80.0871C162.324 79.6259 162.532 79.511 163.016 79.6507L164.63 80.1162C165.115 80.2559 165.23 80.4638 165.097 80.9251L160.827 95.7297C160.694 96.1909 160.486 96.3057 160.002 96.1661L158.387 95.7005C157.903 95.5609 157.788 95.3529 157.921 94.8917ZM149.628 87.8789C152.118 88.5971 153.977 87.4347 154.616 85.221C155.281 82.915 154.306 81.0104 151.816 80.2921C149.348 79.5805 147.503 80.6968 146.844 82.9797C146.206 85.1935 147.183 87.1739 149.628 87.8789ZM148.856 90.5539C144.59 89.3235 142.881 85.8083 143.939 82.1418C145.003 78.4521 148.321 76.3868 152.587 77.6171C156.853 78.8475 158.585 82.3693 157.521 86.0589C156.464 89.7255 153.122 91.7842 148.856 90.5539Z" fill="black"/>
<g clip-path="url(#clip0_1303_956)">
<path d="M310.258 40.3982C316.807 37.3501 317.766 25.5146 315.038 21.8851C314.183 20.7489 313.015 19.7059 311.597 19.5774C310.178 19.4489 308.618 20.6285 308.812 22.0339C309.015 23.507 310.746 24.1564 312.193 24.5002C314.955 25.1534 317.785 25.7801 320.604 25.4414C325.38 24.865 329.656 21.2786 331.056 16.6793" stroke="#FF8DF7" stroke-width="5.07848" stroke-linecap="round" stroke-linejoin="round"/>
</g>
<path d="M79.6544 391.182C74.3992 386.446 76.9025 375.091 80.4998 372.477C81.6271 371.659 83.0197 371.018 84.3846 371.305C85.7495 371.593 86.8712 373.146 86.2855 374.405C85.6721 375.726 83.8651 375.837 82.4118 375.743C79.6378 375.56 76.8085 375.334 74.2666 374.207C69.9619 372.295 66.989 367.708 67 363" stroke="#F75555" stroke-width="4.97332" stroke-linecap="round" stroke-linejoin="round"/>
<path d="M110.365 190.284L98.2641 138.256C97.3835 135.178 97.9792 134.656 101.211 134.042L108.162 132.719C110.644 132.36 111.252 132.635 111.873 135.419L121.315 176.158L146.208 143.938C148.056 141.703 148.538 141.607 150.753 143.107L156.435 147.359C158.984 149.291 159.191 149.803 157.257 152.357L105.832 219.09C103.898 221.645 103.257 221.473 100.527 219.374L96.06 215.672C93.1429 213.41 93.0399 212.932 94.9794 210.379L110.372 190.279L110.365 190.284Z" fill="#303030"/>
<path d="M210.228 193.617C209.565 196.513 208.521 197.026 205.778 196.635L165.911 189.251C165.387 203.096 186.278 207.445 196.976 205.308C199.249 204.892 199.474 205.752 199.251 207.847L198.086 215.156C197.866 217.258 197.25 217.437 195.035 217.637C188.331 218.458 180.86 217.48 175.661 216.087C156.457 210.941 149.236 195.02 154.013 177.193C158.164 161.701 172.087 149.628 190.125 154.461C208.163 159.295 214.516 174.19 210.221 193.621L210.228 193.617ZM198.224 183.236C199.333 174.438 194.952 168.711 187.206 166.635C178.61 164.332 171.031 168.441 168.027 177.531L198.224 183.236Z" fill="#303030"/>
<path d="M235.264 219.427C241.203 221.019 246.408 220.708 247.46 216.78C248.597 212.537 241.731 208.88 235.409 204.456C227.217 198.963 218.888 191.84 221.56 181.868C223.721 173.802 232.356 165.772 251.03 170.775C259.515 173.049 264.426 175.957 268.832 179.868C270.225 181.034 270.317 181.971 269.758 183.639L267.456 190.53C266.782 192.623 266.061 192.774 264.301 191.278C260.731 188.047 256.15 184.771 248.934 182.838C242.145 181.018 236.859 181.651 235.75 185.789C234.386 190.883 243.324 194.87 250.901 200.536C258.692 206.265 263.73 212.5 261.426 221.097C258.584 231.704 247.809 235.413 233.699 231.632C224.042 229.045 218.816 226.052 213.964 221.684C212.601 220.407 212.885 219.347 213.774 217.311L216.314 212.076C217.174 210.145 217.819 209.862 219.635 211.148C224.265 214.663 230.175 218.064 235.269 219.429L235.264 219.427Z" fill="#303030"/>
<path d="M281.351 231.23C285.207 233.097 286.877 237.205 285.009 241.061C283.142 244.916 278.933 246.048 275.077 244.18C271.026 242.218 269.404 238.26 271.271 234.405C273.139 230.55 277.3 229.267 281.351 231.23ZM304.579 167.909C305.584 165.835 306.513 165.427 308.788 166.529L315.51 169.785C317.785 170.888 318.043 171.864 317.036 173.944L292.802 223.965C291.797 226.039 290.869 226.447 288.594 225.345L281.871 222.088C279.596 220.986 279.338 220.01 280.346 217.93L304.579 167.909Z" fill="#FF5A5A"/>
<defs>
<clipPath id="clip0_1303_956">
<rect width="24.9353" height="33.8565" fill="white" transform="translate(310.391 7.67944) rotate(17.0654)"/>
</clipPath>
</defs>
</svg>
