<svg width="390" height="404" viewBox="0 0 390 404" fill="none" xmlns="http://www.w3.org/2000/svg">
<rect x="45.3533" y="1.56797" width="393.108" height="310.38" rx="15.5" transform="rotate(15.0246 45.3533 1.56797)" fill="white" stroke="#DADADA"/>
<g clip-path="url(#clip0_876_861)">
<path d="M132.514 190.649L133.394 190.885C136.354 191.678 137.21 194.568 136.31 197.926C135.474 201.048 133.263 203.542 130.221 202.727L128.538 202.276C116.055 198.931 112.074 189.458 114.926 178.812C116.363 173.451 118.508 165.446 119.883 161.272C120.688 158.915 123.118 156.562 128.24 157.935C133.362 159.307 134.29 162.559 133.626 165.037C132.296 170.001 129.682 178.476 128.503 182.876C127.216 187.678 129.552 189.846 132.512 190.64L132.514 190.649ZM146.585 168.857C147.169 166.354 150.085 163.793 154.968 165.101C159.851 166.409 161.044 169.646 160.328 172.627C157.886 182.695 154.612 193.31 152.179 203.038C148.065 219.348 135.93 222.704 125.192 219.566C120.254 218.155 115.765 216.009 113.34 213.217C111.696 211.664 109.841 208.676 111.989 205.135C113.932 202.053 118.056 201.701 120.571 203.831C123.286 206.189 125.461 207.028 128.583 207.865C133.146 209.087 136.237 206.83 138.209 200.751C141.098 191.576 143.625 181.186 146.581 168.856L146.585 168.857Z" fill="#303030"/>
<path d="M190.593 174.299C201.316 177.172 209.369 187.136 206.035 201.508C204.786 206.494 201.772 208.772 197.133 207.529L182.326 203.562C179.366 202.768 178.711 199.763 179.504 196.803C180.297 193.842 182.83 191.43 185.551 192.159L193.155 194.197C193.781 191.535 193.306 187.548 187.787 186.069C182.268 184.59 178.121 187.252 175.933 195.416C173.746 203.579 176.272 207.599 182.026 209.484C184.867 210.414 188.357 210.837 191.926 209.993C195.533 209.33 199.095 211.397 199.087 215.598C199.061 219.538 195.355 221.205 193.881 221.579C189.338 222.848 183.394 222.629 178.118 220.872C162.531 215.665 158.809 203.945 162.089 191.701C165.649 178.416 176.194 170.436 190.599 174.295L190.593 174.299Z" fill="#303030"/>
<path d="M234.402 219.836C234.75 218.213 232.499 217.01 227.481 214.292C220.789 210.782 210.018 204.553 213.203 194.596C216.34 184.801 226.404 184.068 235.969 186.457C238.875 187.149 245.79 189.176 248.302 190.361C250.433 191.363 252.545 195.015 251.152 198.932C250.012 202.23 246.386 203.918 243.073 202.513C240.997 201.613 234.462 199.432 232.842 199.085C228.078 197.982 226.946 198.361 226.603 199.643C226.303 200.762 229.792 202.471 234.49 205.103C243.608 210.119 250.359 215.014 248.269 223.465C245.184 235.935 231.93 235.469 221.69 232.382C217.334 231.041 211.011 228.065 207.888 224.994C206.548 223.604 204.872 220.239 206.96 216.938C209.498 212.902 214.065 213.783 216.572 215.311C218.895 216.876 222.926 218.817 226.459 220.02C231.093 221.606 233.965 221.775 234.398 219.831L234.402 219.836Z" fill="#303030"/>
<path d="M271.752 223.997C268.687 222.174 267.026 219.128 268.588 216.204C274.317 205.83 280.087 195.197 285.955 183.496C287.28 181.012 291.277 180.041 294.636 181.839C298.362 183.826 299.976 187.321 298.601 190.25C292.867 202.216 286.56 213.689 281 223.211C279.126 226.72 275.035 225.944 271.75 224.002L271.752 223.997Z" fill="#FF5A5A"/>
<path d="M114.473 128.01C114.637 127.551 115.151 127.464 115.472 127.596C116.863 128.115 120.157 129.029 121.611 129.241C121.991 129.292 122.359 129.61 122.271 130.127C122.183 130.644 121.739 130.781 121.403 130.751C120.933 130.694 119.97 130.477 118.9 130.199L118.447 131.891C118.355 132.233 117.868 132.326 117.517 132.232C117.167 132.139 116.809 131.818 116.9 131.476L117.351 129.793C116.324 129.509 115.386 129.216 114.91 129.011C114.575 128.862 114.306 128.497 114.479 128.007L114.473 128.01ZM118.608 128.024C116.853 127.554 115.814 126.456 116.189 125.059C116.591 123.559 118.099 123.263 119.773 123.712C121.567 124.192 122.549 125.312 122.187 126.666C121.824 128.02 120.364 128.494 118.608 128.024ZM119.369 125.151C118.412 124.895 117.842 125.007 117.718 125.469C117.583 125.973 118.077 126.334 118.987 126.578C119.952 126.836 120.533 126.736 120.661 126.257C120.79 125.779 120.382 125.422 119.369 125.151Z" fill="#303030"/>
<path d="M123.63 128.779C123.776 128.493 124.058 128.294 124.306 128.36L126.587 128.971C126.647 128.749 126.721 128.504 126.803 128.132C126.822 128.059 126.846 127.937 126.632 127.88L124.671 127.355C124.321 127.261 124.248 126.797 124.332 126.485C124.416 126.173 124.746 125.827 125.058 125.911L127.946 126.684C128.211 126.755 128.551 127.076 128.508 127.526C128.446 128.014 128.03 129.568 127.775 130.109C127.645 130.372 127.324 130.716 126.922 130.609L124.795 130.039C124.741 130.272 124.641 130.611 124.559 130.951C124.526 131.111 124.593 131.235 124.792 131.329C125.01 131.438 125.189 131.504 125.493 131.586C126.044 131.733 126.529 131.735 126.738 131.69C127.058 131.639 127.671 131.899 127.634 132.462C127.617 132.869 127.19 133.162 126.968 133.19C126.445 133.297 125.68 133.211 125.065 133.046C124.3 132.841 123.727 132.518 123.416 132.279C123.2 132.093 122.914 131.76 122.925 131.328C122.935 130.809 123.442 129.141 123.627 128.774L123.63 128.779ZM129.303 134.214C129.149 134.566 128.683 134.766 128.295 134.626C127.855 134.457 127.686 134.028 127.802 133.665C128.296 132.3 129.255 128.789 129.498 127.334C129.547 126.93 130.004 126.659 130.381 126.723C130.816 126.79 131.128 127.18 131.076 127.578C130.914 128.885 129.675 133.219 129.299 134.212L129.303 134.214Z" fill="#303030"/>
<path d="M136.693 133.598C136.022 133.418 135.525 133.106 135.236 132.882C135.029 132.699 134.717 132.359 134.75 131.914C134.814 131.093 135.307 129.458 135.557 128.866C135.736 128.488 136.196 128.396 136.461 128.467L139.507 129.283C139.776 129.355 140.124 129.664 140.083 130.069C140.019 130.753 139.658 132.291 139.224 133.241C139.08 133.56 138.65 133.66 138.396 133.72C137.928 133.809 137.325 133.767 136.693 133.598ZM137.442 137.466C136.605 137.242 135.544 136.93 134.856 136.457C134.602 136.293 134.333 135.914 134.356 135.485C134.377 135.047 134.527 134.524 134.717 134.034C134.798 133.8 135.095 133.426 135.672 133.599C136.21 133.761 136.304 134.263 136.207 134.539C136.118 134.771 136.031 134.977 135.981 135.197C135.951 135.308 135.989 135.387 136.087 135.432C136.602 135.68 137.315 135.889 137.896 136.045C138.652 136.247 139.531 136.336 140.169 136.347C140.551 136.357 140.908 136.613 140.901 137.115C140.903 137.45 140.613 137.798 140.248 137.829C139.437 137.9 138.304 137.683 137.448 137.463L137.442 137.466ZM138.249 130.407L136.997 130.071C136.813 130.022 136.773 130.139 136.743 130.2C136.64 130.479 136.382 131.358 136.333 131.729C136.32 131.845 136.369 131.936 136.466 132.003C136.62 132.095 136.799 132.161 137.094 132.24C137.405 132.323 137.609 132.35 137.764 132.351C137.877 132.34 137.946 132.271 137.986 132.154C138.108 131.853 138.35 130.951 138.401 130.64C138.408 130.582 138.431 130.46 138.243 130.41L138.249 130.407ZM142.099 132.047L142.569 132.173C142.898 132.261 143.071 132.692 142.975 133.051C142.891 133.363 142.594 133.737 142.227 133.638L141.71 133.5C141.526 134.151 141.336 134.741 141.193 135.138C141.052 135.512 140.615 135.743 140.181 135.567C139.734 135.388 139.572 134.969 139.687 134.606C140.08 133.516 140.608 131.51 140.831 130.338C140.91 129.975 141.243 129.689 141.707 129.754C142.17 129.818 142.454 130.21 142.399 130.621C142.341 130.99 142.234 131.493 142.095 132.046L142.099 132.047Z" fill="#303030"/>
<path d="M145.22 133.181C145.201 133.286 145.24 133.365 145.355 133.414C145.551 133.517 145.842 133.613 146.175 133.703C146.734 133.852 147.391 133.882 147.62 133.861C147.979 133.838 148.531 133.967 148.515 134.572C148.5 135.021 148.094 135.187 147.87 135.219C147.338 135.324 146.392 135.18 145.786 135.018C145.141 134.845 144.442 134.548 144.119 134.283C143.921 134.101 143.6 133.759 143.641 133.317C143.722 132.501 143.95 131.82 144.226 131.166C144.368 130.86 144.773 130.63 145.26 130.811C145.79 131.003 145.766 131.537 145.697 131.725C145.555 132.103 145.317 132.667 145.23 133.179L145.22 133.181ZM144.529 137.895C144.532 137.988 144.564 138.023 144.659 138.077C145.026 138.262 145.774 138.513 146.449 138.693C147.205 138.896 148.145 139.029 148.816 139.053C149.255 139.074 149.504 139.288 149.502 139.621C149.508 139.939 149.25 140.167 148.905 140.19C148.1 140.257 146.763 139.95 145.902 139.728C145.065 139.504 143.984 139.164 143.492 138.794C143.253 138.611 142.979 138.212 143.003 137.784C143.029 137.328 143.197 136.957 143.282 136.774C143.445 136.423 143.757 136.319 143.953 136.372L148.302 137.537L148.354 137.345C148.364 137.27 148.317 137.225 148.189 137.191L144.049 136.082C143.866 136.032 143.635 135.783 143.738 135.398C143.821 135.087 144.114 134.918 144.323 134.974L149.45 136.347C149.706 136.416 150.014 136.787 149.939 137.358C149.879 137.804 149.749 138.186 149.597 138.479C149.392 138.887 149.052 138.924 148.779 138.851L144.575 137.724L144.531 137.891L144.529 137.895ZM150.921 133.624L151.408 133.754C151.737 133.842 151.923 134.226 151.827 134.585C151.743 134.897 151.459 135.224 151.091 135.125L150.557 134.982C150.483 135.191 150.401 135.412 150.317 135.655C150.175 136.033 149.739 136.26 149.305 136.084C148.858 135.905 148.679 135.482 148.811 135.123C149.125 134.328 149.367 133.308 149.474 132.65C149.532 132.281 149.886 132 150.35 132.065C150.813 132.13 151.097 132.522 151.042 132.933C151.001 133.187 150.963 133.415 150.918 133.618L150.921 133.624Z" fill="#303030"/>
<path d="M152.124 136.295C152.265 136.026 152.574 135.93 152.758 135.979L154.112 136.342C154.112 136.342 154.245 135.847 154.318 135.472C154.333 135.417 154.354 135.303 154.161 135.252L153.149 134.981C152.782 134.882 152.718 134.421 152.801 134.109C152.885 133.797 153.207 133.449 153.536 133.537L155.505 134.064C155.774 134.137 156.093 134.35 156.061 134.795C156.026 135.298 155.528 137.124 155.263 137.667C155.113 137.97 154.725 138.054 154.46 137.983L153.264 137.662C153.264 137.662 153.05 138.356 152.967 138.737C152.956 138.812 152.971 138.875 153.047 138.914C153.297 139.059 153.842 139.177 154.28 139.066C154.6 138.982 155.107 139.328 155.087 139.813C155.066 140.233 154.648 140.492 154.439 140.537C153.976 140.642 153.525 140.667 152.936 140.509C152.475 140.386 152.12 140.204 151.832 139.948C151.55 139.685 151.393 139.345 151.381 139.017C151.4 138.468 151.966 136.61 152.13 136.287L152.124 136.295ZM157.105 138.705C156.781 139.882 156.451 140.957 156.289 141.394C156.135 141.747 155.664 141.964 155.315 141.815C154.918 141.64 154.727 141.223 154.834 140.858C155.328 139.493 156.272 136.074 156.505 134.621C156.561 134.224 156.977 133.937 157.371 134.006C157.787 134.076 158.088 134.454 158.04 134.858C157.976 135.354 157.76 136.262 157.502 137.26L157.869 137.358C158.1 136.463 158.292 135.626 158.379 135.077C158.437 134.676 158.879 134.392 159.245 134.462C159.659 134.541 159.962 134.911 159.915 135.31C159.744 136.615 158.513 140.951 158.137 141.944C157.983 142.297 157.535 142.502 157.159 142.365C156.772 142.22 156.576 141.773 156.687 141.409C156.895 140.824 157.196 139.852 157.484 138.812L157.108 138.711L157.105 138.705Z" fill="#303030"/>
<path d="M161.62 139.251C161.737 138.848 162.087 138.616 162.587 138.512C163.215 138.406 163.804 138.344 163.935 137.857C164.007 137.588 163.807 137.31 163.345 137.186C162.969 137.085 162.536 137.079 162.123 137.408C161.848 137.632 161.339 137.532 161.078 137.188C160.856 136.872 160.927 136.387 161.145 136.171C161.734 135.628 162.57 135.38 163.749 135.696C165.496 136.165 165.819 137.643 165.449 138.51C164.913 139.776 163.724 139.755 163.383 139.847C163.259 139.864 163.129 139.958 163.09 140.103L162.975 140.498C162.857 140.938 162.268 140.968 161.965 140.85C161.589 140.699 161.301 140.425 161.407 140.028L161.625 139.248L161.62 139.251ZM161.367 143.322C160.848 143.156 160.732 142.786 160.779 142.611C160.848 142.355 160.912 142.115 160.946 141.955C161.031 141.552 161.522 141.427 161.889 141.526C162.376 141.656 162.648 141.926 162.573 142.29C162.533 142.508 162.463 142.733 162.391 142.97C162.252 143.386 161.769 143.444 161.372 143.319L161.367 143.322Z" fill="#303030"/>
<path d="M153.993 148.288L110.731 136.696C106.938 135.679 104.686 131.78 105.702 127.986L107.604 120.89C108.62 117.097 112.52 114.845 116.314 115.862L169.354 130.074C173.147 131.09 175.399 134.99 174.382 138.784L172.481 145.879C171.464 149.673 167.564 151.924 163.771 150.908L162.759 150.637C162.122 150.466 161.437 150.649 160.973 151.115L157.995 154.095C157.47 154.618 156.578 154.379 156.389 153.664L155.3 149.595C155.127 148.958 154.629 148.458 153.993 148.288Z" stroke="#303030" stroke-width="0.884521" stroke-miterlimit="10"/>
<path d="M263.876 244.881C268.269 246.058 272.784 243.451 273.961 239.058C275.138 234.665 272.531 230.149 268.138 228.972C263.745 227.795 259.23 230.402 258.053 234.795C256.876 239.188 259.483 243.704 263.876 244.881Z" fill="#FF5A5A"/>
</g>
<path d="M60.6261 288.499C62.8319 269.46 62.7013 250.155 60.2309 231.151C50.1469 244.635 40.9981 258.813 32.8668 273.557C31.9451 275.225 31.2335 277.719 32.8688 278.69C47.1248 274.887 61.2834 270.702 75.3241 266.153C76.3422 265.826 77.4856 265.375 77.8445 264.363C78.3944 262.812 76.7071 261.437 75.254 260.664C61.684 253.46 47.1829 247.997 32.2315 244.459C42.6733 258.755 51.5809 274.163 58.7595 290.345" fill="#FF71D0"/>
<path d="M60.6261 288.499C62.8319 269.46 62.7013 250.155 60.2309 231.151C50.1469 244.635 40.9981 258.813 32.8668 273.557C31.9451 275.225 31.2335 277.719 32.8688 278.69C47.1248 274.887 61.2834 270.702 75.3241 266.153C76.3422 265.826 77.4856 265.375 77.8445 264.363C78.3944 262.812 76.7071 261.437 75.254 260.664C61.684 253.46 47.1829 247.997 32.2315 244.459C42.6733 258.755 51.5809 274.163 58.7595 290.345" stroke="#282828" stroke-width="2.86285" stroke-linecap="round" stroke-linejoin="round"/>
<path d="M302.908 291.005C308.136 287.391 315.886 288.035 320.445 292.464C321.503 293.488 322.442 294.86 322.243 296.32C322.111 297.281 321.5 298.104 320.89 298.858C316.423 304.347 310.615 308.736 304.12 311.538C302.39 312.285 300.566 312.927 298.682 312.906C296.458 312.882 294.356 311.931 292.419 310.837C289.295 309.068 286.421 306.868 283.897 304.313C283.131 303.536 282.366 302.674 282.147 301.602C281.938 300.571 282.272 299.514 282.627 298.521C284.555 293.109 287.166 287.939 290.384 283.177C291.46 281.581 292.735 279.937 294.575 279.368C297.415 278.491 300.353 280.547 302.138 282.93C304.496 286.081 305.559 291.026 302.628 293.654" fill="#FF5252"/>
<path d="M302.908 291.005C308.136 287.391 315.886 288.035 320.445 292.464C321.503 293.488 322.442 294.86 322.243 296.32C322.111 297.281 321.5 298.104 320.89 298.858C316.423 304.347 310.615 308.736 304.12 311.538C302.39 312.285 300.566 312.927 298.682 312.906C296.458 312.882 294.356 311.931 292.419 310.837C289.295 309.068 286.421 306.868 283.897 304.313C283.131 303.536 282.366 302.674 282.147 301.602C281.938 300.571 282.272 299.514 282.627 298.521C284.555 293.109 287.166 287.939 290.384 283.177C291.46 281.581 292.735 279.937 294.575 279.368C297.415 278.491 300.353 280.547 302.138 282.93C304.496 286.081 305.559 291.026 302.628 293.654" stroke="#282828" stroke-width="1.60933" stroke-miterlimit="10"/>
<path d="M117.538 281.16C116.787 280.871 116.435 280.633 116.482 280.449C117.065 279.321 117.481 278.691 117.73 278.558L117.773 278.392L117.67 278.219L117.712 278.053L118.182 278.173L117.921 277.811L118.129 277.688C118.153 277.596 118.147 277.388 118.111 277.065C118.296 277.112 118.556 276.707 118.893 275.85C119.096 275.902 119.272 275.633 119.423 275.042C119.607 275.09 119.856 274.731 120.169 273.966C120.28 273.916 120.393 273.896 120.508 273.905C120.44 273.79 120.422 273.667 120.455 273.538L120.621 273.463L120.663 273.297L120.437 272.915L120.507 272.638L120.812 272.716L120.709 272.543L120.97 271.519L121.27 270.918C121.374 270.513 121.302 269.984 121.056 269.332L121.566 268.49L121.767 268.394L121.435 268.309C121.482 268.125 121.523 267.811 121.557 267.368C121.829 266.613 122.075 266.263 122.296 266.319L122.392 266.521L122.6 266.397L123.292 266.573L122.451 268.716L122.643 269.118L122.504 269.2L122.572 269.395L122.466 269.809L122.313 269.947L122.364 270.903L122.043 271.469L122.174 271.65L122.131 271.816L121.937 271.884L121.835 272.977C121.008 275.064 120.446 276.227 120.15 276.465C120.052 276.539 119.99 276.631 119.962 276.741C120.016 276.834 120.03 276.935 120.002 277.046L119.534 277.722L119.658 277.931L119.082 278.225L119.058 279.015C118.836 278.958 118.599 279.271 118.347 279.953L117.806 280.109L117.93 280.318L117.782 280.898L117.573 281.022L117.538 281.16ZM113.657 279.051C113.473 279.004 113.04 278.854 112.358 278.602L112.478 278.131L113.566 276.524L113.435 276.343L114.51 274.555L114.407 274.381C114.435 274.271 114.686 273.864 115.16 273.16L115.092 272.966C115.12 272.855 115.181 272.772 115.273 272.717L115.222 271.762L115.431 271.638L115.613 269.652L115.752 269.687C115.678 269.59 115.656 269.486 115.684 269.375C116.375 267.745 116.886 266.972 117.218 267.057L117.661 267.169L117.887 267.551L117.679 267.675L117.617 269.073L117.27 269.279L117.002 270.33L117.278 270.401C117.231 270.585 117.069 270.642 116.793 270.571C116.971 271.029 116.996 271.507 116.869 272.005L116.716 272.143L116.55 272.1L116.681 272.281L116.525 272.889L116.211 273.428C116.223 273.843 116.215 274.106 116.187 274.217C115.932 274.368 115.627 274.909 115.272 275.839L115.119 275.977L115.082 276.586C114.694 276.487 114.475 276.539 114.423 276.742L114.657 277.096C114.629 277.207 114.295 277.859 113.657 279.051ZM111.892 271.766L110.122 271.315L109.683 270.613L110.909 270.308L110.853 270.529L113.926 270.724L114.737 270.548L115.152 270.654L115.419 271.105C114.23 271.842 113.054 272.063 111.892 271.766ZM111.593 274.901L110.847 274.71L110.613 274.356C110.693 274.043 110.982 273.91 111.48 273.959L112.694 273.473L112.818 273.682L113.476 273.525L113.78 273.603C114.002 273.66 114.115 274.062 114.121 274.809L111.593 274.901ZM105.826 276.493L105.771 276.479C104 276.028 102.736 274.939 101.979 273.214L101.898 271.337C101.941 271.015 101.995 270.724 102.061 270.466C102.4 269.138 103.021 268.511 103.925 268.585L104.09 268.98C103.492 269.476 103.118 269.94 102.968 270.373L102.829 271.958C102.939 273.145 103.467 274.075 104.415 274.749L105.741 275.441L106.925 275.301C106.87 275.208 106.855 275.116 106.878 275.024C107.367 274.265 107.694 273.906 107.86 273.948L108.248 272.427L108.745 271.17L108.608 271.017L108.809 270.921L108.872 270.672C109.38 268.68 108.952 267.511 107.588 267.163C107.385 267.111 107.156 267.082 106.903 267.076C105.764 266.845 104.726 267.218 103.789 268.197L103.27 268.153L103.286 267.744C104.123 266.465 105.48 265.957 107.357 266.22L108.297 266.46C109.43 267.024 109.93 267.564 109.799 268.08L109.625 268.183C109.846 268.24 110.084 268.654 110.339 269.426L110.421 269.565C110.329 269.62 110.271 269.693 110.247 269.785L110.493 270.555L110.436 270.776C110.319 271.237 110.174 271.613 110.002 271.903C109.884 272.364 109.732 272.806 109.545 273.23C109.3 273.422 109.075 273.65 108.871 273.912L108.701 274.576C108.646 274.64 108.597 274.716 108.555 274.803C108.517 274.872 108.422 275.093 108.268 275.467L108.024 275.728C107.565 276.22 106.832 276.475 105.826 276.493ZM127.016 283.019L125.102 282.206L122.231 281.798C122.139 281.696 122.031 281.619 121.907 281.568C121.238 281.495 120.793 281.431 120.572 281.375L120.741 280.711L120.78 279.866L121.369 279.634L122.199 279.845L122.288 280.074L122.503 279.923L123.001 280.05L123.118 280.286L124.364 280.25L126.271 281.09C126.603 281.175 129.329 281.458 134.45 281.94L134.407 282.106L137.73 282.246L137.707 284.185L137.137 284.57L134.609 283.394C134.129 283.429 133.865 283.538 133.818 283.723L133.231 283.367L132.352 283.349L132.208 283.106C132.133 283.401 131.571 283.562 130.523 283.589L129.951 283.06L129.528 283.335L129.411 283.099L127.715 283.05L127.758 282.884L127.016 283.019ZM133.926 278.566C133.631 278.49 133.322 278.392 133 278.27C132.696 278.154 132.41 277.58 132.143 276.549C131.769 276.395 131.603 276.009 131.643 275.391C131.316 275.288 130.723 274.223 129.865 272.198L129.48 271.746L129.314 271.704C129.201 272.068 128.829 272.257 128.196 272.273L128.056 272.708C126.674 274.889 125.663 276.006 125.021 276.058L124.326 275.203L125.953 273.674L126.148 273.606L126.489 273.075C126.439 272.964 126.428 272.853 126.456 272.742C127.069 272.113 127.649 271.456 128.197 270.771C128.378 270.365 128.586 270.015 128.818 269.721L129.199 269.612L130.001 269.935L130.025 270.648L129.824 270.744C130.642 271.385 131.261 272.191 131.681 273.162C131.953 273.251 132.269 273.744 132.629 274.641C133.333 275.115 133.838 275.755 134.143 276.559C134.429 276.671 135.026 277.373 135.933 278.665L135.835 278.935L135.697 278.9L135.573 278.691C135.139 278.777 134.59 278.735 133.926 278.566ZM143.431 288.767C142.693 288.579 141.999 288.373 141.35 288.148L141.261 287.919C141.15 287.891 140.744 287.827 140.043 287.727L138.482 287.034C138.209 286.335 138.123 285.784 138.227 285.378L138.311 285.164L138.94 285.471L139.769 285.683L140.473 286.157L142.256 286.789L144.85 287.362L145.212 286.983L145.27 286.409L146.044 285.104L146.138 284.391C146.44 283.977 146.766 283.815 147.116 283.904L147.303 283.982C147.448 284.49 147.449 285.178 147.307 286.045C146.79 286.914 146.509 287.402 146.462 287.508L147.265 287.595L148.916 288.282L148.986 288.123C149.032 288.252 149.112 288.361 149.227 288.449C149.67 288.327 150.049 288.305 150.362 288.385L150.549 288.462C150.595 288.592 150.668 288.689 150.769 288.754L151.22 288.604L151.386 288.647C151.413 288.771 151.484 288.878 151.599 288.966C151.739 288.648 152.077 288.479 152.612 288.459L152.902 288.591L152.877 289.498L152.807 289.657C152.587 290.288 151.574 290.374 149.767 289.913C147.368 289.615 145.256 289.233 143.431 288.767ZM144.869 283.361L143.486 283.008L143.781 282.199L143.533 281.783L143.872 280.455L144.104 278.393L144.279 277.819L144.204 277.653L144.246 277.487L144.975 277.054L145.252 277.125L145.383 277.305L147.203 277.446L149.361 277.878L150.109 277.834C150.584 276.894 151.034 275.939 151.458 274.967L151.434 274.254C151.511 273.566 151.402 273.185 151.107 273.11L151.227 272.64L151.559 272.724L152.929 272.897C152.764 273.621 152.638 274.345 152.552 275.069C152.202 275.824 151.891 276.58 151.62 277.335C151.271 278.012 150.958 278.698 150.683 279.394C149.092 279.086 147.505 278.799 145.924 278.533L145.295 279.61L145.082 282.178L145.803 282.126C146.079 282.275 146.369 282.408 146.673 282.525L147.454 282.695C148.128 282.749 148.799 282.773 149.469 282.767L150.977 282.975L150.313 284.308L149.123 284.122L149.055 283.928L148.479 284.105L147.815 284.053L146.571 283.618L144.869 283.361ZM144.638 273.875L143.836 273.67C143.744 273.568 143.717 273.444 143.754 273.296L144.36 272.655L147.758 272.727C148.22 272.766 148.695 272.789 149.184 272.796L151.268 272.827L151.425 273.368L152.033 273.64L151.99 273.806L151.123 274.086C150.865 274.02 150.547 273.998 150.168 274.019L150.211 273.853L150.002 273.977L148.237 273.968L147.788 273.765L147.594 273.834L147.317 273.763C146.472 273.842 145.893 273.842 145.58 273.762L144.638 273.875ZM166.503 293.623C165.858 293.458 165.33 293.294 164.92 293.13L164.832 292.902C164.721 292.873 164.315 292.809 163.614 292.709L162.053 292.016C161.779 291.318 161.694 290.766 161.798 290.36L161.882 290.146L162.51 290.453L163.34 290.665L164.044 291.139L165.827 291.771L168.42 292.344L168.782 291.965L168.84 291.391C168.949 290.967 169.029 290.536 169.082 290.097C169.384 289.683 169.71 289.521 170.06 289.611L170.247 289.688C170.392 290.196 170.394 290.884 170.251 291.751C170.152 292.138 170.079 292.384 170.033 292.49L170.835 292.577L172.487 293.264L172.557 293.105C172.602 293.234 172.682 293.343 172.797 293.431C173.241 293.309 173.62 293.288 173.933 293.368L174.12 293.445C174.165 293.574 174.239 293.671 174.34 293.736L174.791 293.586L174.956 293.629C174.984 293.753 175.055 293.86 175.17 293.948C175.31 293.63 175.647 293.461 176.183 293.441L176.473 293.574L176.448 294.48L176.378 294.639C176.158 295.271 175.144 295.356 173.337 294.895C170.349 294.447 168.071 294.023 166.503 293.623ZM165.484 289.651C165.555 289.374 165.418 288.986 165.074 288.486L167.23 287.887L167.198 287.437C167.659 287.554 168.755 287.068 170.486 285.978L170.652 286.02L170.515 285.867C170.58 285.609 171.219 285.301 172.43 284.942C172.38 284.831 172.369 284.72 172.397 284.61L174.078 283.33L174.003 283.163L173.553 283.196C171.188 283.535 169.28 283.549 167.827 283.238C167.417 283.231 167.054 283.188 166.741 283.108C166.464 283.037 166.216 282.934 165.995 282.8L166.373 281.894L169.729 282.25C169.91 282.001 170.222 281.934 170.665 282.047C170.83 282.089 171.214 282.088 171.814 282.045C172.885 282.004 173.6 282.01 173.96 282.062L174.145 282.375L174.513 282.204C175.042 282.515 175.405 282.942 175.601 283.483L174.189 284.86L174.093 284.659C173.872 285.447 172.967 286.071 171.377 286.529L171.077 287.012L172.14 287.696L173.174 288.608C173.561 288.707 174.235 289.144 175.196 289.919L174.363 290.414L174.122 290.087L173.81 290.272C173.634 290.267 173.473 290.245 173.325 290.208C172.92 290.104 172.607 289.907 172.387 289.615L172.248 289.697C172.137 289.669 172.045 289.606 171.972 289.509L172.007 289.371C171.382 288.897 170.768 288.416 170.165 287.929L165.484 289.651ZM174.123 281.309L173.231 280.993L173.273 280.827L172.401 280.781L171.738 280.612C171.516 280.555 170.922 280.345 169.954 279.98L169.707 279.564C170.005 279.168 170.448 279.046 171.038 279.196L171.451 279.655L171.868 279.408L172.2 279.492L172.613 279.951L173.03 279.704L174.191 280L174.604 280.459C174.437 280.731 174.276 281.014 174.123 281.309ZM196.193 302.051C196.221 301.94 196.222 301.705 196.196 301.345L196.39 301.277L196.267 301.068L196.128 301.033C196.766 299.841 197.346 298.221 197.869 296.175C196.983 295.949 195.739 295.052 194.136 293.484L193.97 293.442L193.889 294.452L193.681 294.576C193.653 294.687 193.614 295.069 193.565 295.725L193.399 295.682L193.522 295.891C193.466 296.033 193.383 296.13 193.272 296.18L193.399 297.067L192.816 297.272L192.94 297.48L192.855 297.812C192.791 297.678 192.695 297.594 192.566 297.561L192.495 297.838L192.827 297.923L192.284 300.052L192.252 300.869L192.044 300.993C191.896 300.955 191.8 300.872 191.754 300.742L191.546 300.866L190.744 300.661L190.705 300.121L191.764 297.357L192.099 295.351L192.265 295.393L192.127 295.24L192.42 294.785L192.829 291.796L193.115 291.368L193.189 290.385L193.355 290.427L193.231 290.219L193.69 288.421L194.011 286.471L194.593 286.266L195.063 286.386L195.311 286.802L195.102 286.926L195.226 287.134L195.106 287.604C194.972 287.668 194.888 287.765 194.855 287.894L195.187 287.979L194.824 288.711C194.6 290.048 194.576 290.837 194.75 291.078L194.457 291.534L194.581 291.742C194.552 291.852 194.443 292.05 194.252 292.336L194.5 292.752L194.083 292.999C194.194 293.028 194.591 293.011 195.274 292.95C195.65 293.478 196.234 293.843 197.027 294.045L196.985 294.211L197.193 294.087L197.691 294.214L197.815 294.423L197.995 294.292L198.327 294.377C198.373 294.506 198.469 294.59 198.617 294.627C199.669 291.656 200.679 289.468 201.646 288.065L201.522 287.857L202.013 286.627L201.967 286.114L202.549 285.909C202.764 286.377 202.796 286.905 202.646 287.495L202.448 288.27C202.015 289.966 201.353 291.447 200.461 292.712C200.548 292.832 200.575 292.957 200.542 293.086C199.914 295.086 199.283 296.634 198.65 297.729L198.696 298.242L197.955 299.761L197.994 300.301L197.786 300.425L197.751 300.563C197.692 301.255 197.639 301.693 197.592 301.878L197.231 302.139L197.273 301.973L196.193 302.051ZM180.585 296.832L180.172 296.373L179.964 296.497L178.802 296.201L178.555 295.784C178.685 295.738 178.768 295.642 178.806 295.494L178.559 295.078L178.601 294.912L179.268 294.375L178.813 294.082L179.024 293.252L179.233 293.129L179.239 291.717L179.656 291.469L179.493 290.721L179.786 290.265L179.751 289.019L180.376 288.648C180.136 288.587 179.971 288.309 179.881 287.815L180.089 287.691L179.966 287.483C180.218 286.958 180.372 286.585 180.428 286.364L180.304 286.156C180.352 285.971 180.103 285.79 179.559 285.612L179.436 285.404L179.52 285.072L179.979 284.659L182.218 285.583L183.256 285.671L183.877 286.007L185.788 286.14L186.035 286.557C186.164 286.511 186.248 286.415 186.285 286.267L188.316 287.316L188.524 287.192C188.635 287.22 189.16 287.472 190.099 287.947L190.057 288.113L189.223 288.608C187.361 288.054 186.449 287.704 186.487 287.556L186.279 287.68L185.491 287.302L182.67 286.582L182.547 286.374L182.338 286.498L182.006 286.413C181.938 286.297 181.841 286.214 181.717 286.162L180.955 289.149L180.909 290.022L180.743 289.979L180.867 290.187L179.851 294.17L179.72 295.374L181.214 295.755L184.328 296.019L184.285 296.185L185.698 296.192L186.485 296.57L189.391 296.958L189.349 297.124L186.768 298.233L185.069 297.269L182.496 296.966L182.538 296.8L180.585 296.832ZM206.573 287.731L205.356 287.421L204.458 287.015L204.543 286.683C204.64 286.61 204.703 286.518 204.731 286.407L205.775 286.821C207.914 287.366 209.519 287.54 210.591 287.342L210.963 287.614C210.864 288.001 210.423 288.193 209.638 288.189L209.542 287.988C209.462 288.301 208.473 288.216 206.573 287.731ZM207.117 291.258C206.583 291.043 206.33 290.88 206.358 290.77L206.219 290.852C206.109 290.824 206.035 290.766 205.999 290.678L205.833 290.636L205.666 290.711L205.624 290.877L205.003 290.424L204.892 290.513L202.983 290.026L202.877 289.174L203.05 289.071C204.949 289.556 206.365 289.819 207.297 289.86L207.269 289.971C209.913 290.154 211.426 290.187 211.81 290.069L211.963 289.931L212.086 290.139L212.009 290.444L211.662 290.65L211.737 290.816L211.695 290.982C211.638 291.203 211.054 291.378 209.941 291.507L209.409 291.283C208.518 291.311 207.952 291.294 207.713 291.233L207.368 290.851L207.117 291.258ZM204.89 299.527C203.636 299.207 202.998 298.475 202.976 297.33L203.177 297.234L203.039 297.081C203.578 295.51 204.068 294.781 204.511 294.894L204.442 294.7C204.466 294.607 204.524 294.534 204.616 294.479L204.541 294.312L205.443 293.894C205.81 293.458 206.247 293.245 206.755 293.257L206.956 293.161L206.998 292.995L206.86 292.842L208.1 292.834L208.528 293.002L209.439 293.588C209.347 293.643 209.289 293.717 209.265 293.809L209.593 294.717C209.358 295.639 209.179 296.418 209.056 297.055C208.745 297.427 208.473 297.682 208.242 297.819C207.958 298.316 207.641 298.52 207.29 298.431L207.386 298.75C206.883 299.564 206.051 299.823 204.89 299.527ZM204.478 298.715C205.605 298.688 206.21 298.509 206.295 298.177C206.221 298.08 206.196 297.985 206.22 297.893C207.508 296.768 208.24 295.865 208.414 295.183L208.625 294.353L208.49 293.729L208.316 293.832C208.206 293.804 207.969 293.694 207.605 293.503C207.026 293.925 206.315 294.362 205.473 294.815C204.662 295.531 204.184 296.175 204.038 296.747L203.897 297.3C203.751 297.872 203.945 298.343 204.478 298.715ZM214.176 303.31L213.851 303.198L213.814 302.422L213.605 302.546L212.852 302.265L212.95 301.996L213.159 301.872L213.528 299.963L213.638 299.991C213.588 299.88 213.579 299.76 213.612 299.631L213.807 299.563L213.844 299.072L214.122 298.671L214.286 297.682L214.399 297.357L214.892 297.041L214.672 296.632L215.571 294.033L215.765 293.965L215.669 293.764C215.702 293.634 215.783 293.547 215.913 293.502L215.957 292.983L216.839 290.91L216.771 290.716C216.799 290.605 216.974 290.267 217.295 289.701L217.312 289.057L217.653 288.643L218.03 286.589L218.231 286.493L218.853 286.71C219.254 286.832 219.217 287.824 218.742 289.687L218.615 290.185L218.406 290.308L218.214 291.408L218.048 291.366L218.144 291.567L217.575 293.219L217.496 293.876L217.288 294L217.026 295.259L216.831 295.327L216.499 296.744L216.651 296.842C216.928 295.99 217.81 295.724 219.3 296.045L220.595 295.933L220.718 296.142C220.811 296.165 221.242 296.206 222.012 296.266C222.241 296.756 222.289 297.259 222.157 297.775L222.101 297.997C222.003 298.306 221.326 298.3 220.073 297.98L219.949 297.772C219.746 297.72 219.536 297.696 219.319 297.7L219.355 297.561L216.621 297.306L216.553 297.112L216.352 297.208L216.055 298.487L215.896 298.417L216.019 298.625L215.907 298.95L215.713 299.018L215.781 299.213L215.311 300.595L214.899 301.285L214.735 302.274L214.454 303.028L214.176 303.31ZM208.525 313.799L208.567 313.633L208.414 313.771L207.951 313.623C207.666 313.354 207.576 313.017 207.679 312.611L207.729 312.418L207.867 312.453C208.311 309.404 208.46 307.704 208.314 307.353L207.747 307.149L207.873 306.887C208.093 306.256 208.755 305.894 209.858 305.802L210.173 306.531L211.024 306.66L211.216 307.062C211.484 306.934 212.349 306.968 213.812 307.165L213.797 307.22C213.76 307.367 213.875 307.495 214.142 307.602L214.62 307.577L214.537 307.438L215.684 305.02L215.574 304.875L215.672 304.723C215.729 304.266 215.766 303.814 215.782 303.366C215.238 303.345 214.268 303.334 212.875 303.332C212.801 303.234 212.7 303.169 212.571 303.136C210.458 303.029 209.191 303.03 208.77 303.139L207.917 301.979C208.001 301.804 209.189 301.842 211.482 302.093C211.543 301.931 211.945 301.857 212.688 301.87L213.088 302.149L213.116 302.038L216.349 302.185C217.054 302.424 217.289 303.309 217.056 304.84L216.917 304.805L217.013 305.006L216.88 305.296L216.742 305.379L216.81 305.573L216.74 305.732C216.146 307.446 215.322 308.404 214.268 308.607C214.236 308.736 213.91 308.741 213.292 308.623L213.224 308.429L212.62 308.717L211.771 308.235L211.273 308.225L211.315 308.059L211.162 308.197L210.996 308.155L210.631 307.855L210.505 308.118L209.945 307.887L209.807 307.734L209.419 307.753C209.194 308.638 209.113 310.11 209.177 312.168C209.499 312.29 209.836 312.395 210.186 312.485C211.126 312.725 212.155 312.85 213.272 312.86L213.368 313.061C213.478 313.089 213.693 313.095 214.012 313.078L213.969 313.244L214.136 313.168L214.412 313.239L214.353 314.049L214.229 313.84C214.223 314.173 214.206 314.394 214.178 314.505L208.525 313.799ZM234.552 309.363C235.445 307.096 236.006 305.973 236.237 305.992L236.11 304.988L235.309 304.666L234.789 304.739C234.804 304.606 234.544 304.47 234.009 304.334L233.227 304.164L233.09 304.011L233.146 303.79C233.207 303.55 233.443 303.434 233.854 303.44L236.516 304.208L240.497 295.414L241.113 295.541C241.758 295.706 242.059 295.91 242.017 296.155L241.932 296.487L241.779 296.624L241.903 296.833L241.867 296.971C241.245 298.717 240.8 299.694 240.531 299.9L240.71 300.122C240.682 300.233 240.356 301.161 239.734 302.908C239.661 302.81 239.56 302.745 239.431 302.712L239.374 303.051L239.482 303.55L239.316 303.508C239.408 303.61 239.437 303.725 239.404 303.855C239.097 304.365 238.84 304.604 238.632 304.571C238.724 304.673 238.754 304.788 238.721 304.917C238.623 304.991 238.558 305.092 238.525 305.221L238.663 305.374L237.117 308.78L235.514 309.52L234.552 309.363ZM240.564 313.282C239.651 312.932 239.219 312.664 239.266 312.48L239.351 312.148C240.125 310.421 241.026 308.854 242.052 307.447L242.146 306.616C243.707 302.654 244.734 299.706 245.228 297.77L245.811 297.447L246.254 297.56C247.065 297.767 247.461 298.025 247.441 298.334L247.314 298.832C247.234 299.145 246.982 299.248 246.558 299.14L246.431 299.638L245.615 300.755L245.947 300.84L245.739 300.963C245.706 301.093 245.733 301.217 245.82 301.338L245.792 301.448L245.291 302.027L245.421 302.208L245.337 302.54L245.128 302.664L244.974 304.657C244.752 304.6 244.536 304.987 244.324 305.817L244.158 305.774L244.282 305.983L244.084 306.757L243.681 307.184L243.629 307.849L242.452 309.228L242.17 310.334C241.629 311.531 241.257 312.104 241.054 312.052L241.178 312.261L241.008 312.925L240.564 313.282ZM229.864 309.728C229.716 309.69 229.62 309.607 229.574 309.477L229.394 309.608L229.228 309.566C228.629 309.295 228.358 309.049 228.414 308.828L228.824 308.608L228.866 308.442L228.534 308.358C228.591 308.136 228.877 308.092 229.393 308.223L229.588 308.155L229.63 307.989C228.81 307.662 228.428 307.388 228.485 307.167L229.025 307.128L229.549 307.615C229.739 307.33 229.849 307.132 229.877 307.021L229.711 306.979L229.633 307.283L229.467 307.241C228.864 306.988 228.59 306.752 228.647 306.531L228.689 306.365L229.134 306.007L229.176 305.841C228.844 305.756 228.707 305.603 228.763 305.382L228.806 305.216L229.257 304.83L229.342 304.498L229.01 304.414C229.029 304.34 229.15 304.096 229.374 303.682L229.328 303.169C229.604 303.24 229.878 302.858 230.15 302.024C230.03 302.111 229.905 302.138 229.776 302.105C229.884 301.681 229.781 301.429 229.468 301.349L229.553 301.017L229.719 301.06C230.008 299.464 230.249 298.288 230.442 297.532C230.407 296.974 230.105 296.621 229.533 296.476L229.611 296.171L228.939 296.147L228.477 295.882L227.999 295.907L227.744 295.519L225.786 295.343L225.655 295.162C224.894 295.066 224.357 294.978 224.044 294.898L223.789 294.51L223.874 294.178L227.638 294.667L231.353 296.616C231.652 296.908 231.683 298.094 231.447 300.175L231.57 300.383L231.171 301.253C231.596 301.362 231.659 301.997 231.363 303.158L231.197 303.116L231.087 302.97L230.921 302.928L230.766 303.536C230.969 303.588 231.002 303.881 230.866 304.416L231.085 304.943L230.876 305.067C230.591 304.876 230.393 304.767 230.282 304.738L230.24 304.904C230.664 305.013 230.826 305.957 230.725 307.738L230.361 308.47L230.609 308.887C230.468 309.44 230.219 309.72 229.864 309.728ZM229.691 302.437L229.525 302.395L229.61 302.063L229.776 302.105L229.691 302.437ZM229.377 311.636L229.045 311.552C228.507 311.12 228.271 310.775 228.337 310.517L228.783 309.923C229.705 310.159 230.125 310.551 230.044 311.1C229.765 311.5 229.543 311.679 229.377 311.636ZM246.362 311.875C245.643 311.691 245.271 311.302 245.246 310.706L245.455 310.583C245.483 310.472 245.513 309.891 245.546 308.839C245.68 308.775 245.764 308.678 245.797 308.549C245.465 308.464 245.413 307.744 245.641 306.388L245.807 306.431L245.768 305.89L246.4 304.107L246.826 301.742L247.331 300.456L247.465 298.546L247.881 298.299C248.562 298.787 248.92 299.232 248.955 299.633C248.922 299.763 248.838 299.859 248.704 299.923L248.828 300.131C248.715 300.574 248.519 301.113 248.239 301.748L248.235 302.455L248.069 302.412C247.867 304.128 247.849 305.125 248.013 305.403C247.893 305.49 247.768 305.517 247.639 305.484L247.802 306.233L247.216 307.144L247.372 309.304L247.163 309.428C247.227 309.562 247.324 309.646 247.453 309.679C247.319 309.742 247.235 309.839 247.202 309.968L247.407 310.551C247.374 310.68 247.291 310.776 247.156 310.84L247.28 311.048L247.195 311.38C247.085 311.352 246.878 311.24 246.574 311.045L246.362 311.875ZM245.336 317.976L245.17 317.934C244.93 317.872 244.863 317.443 244.969 316.645L245.135 316.687C245.137 316.217 244.972 315.939 244.64 315.854L244.682 315.688C245.739 314.779 246.433 314.367 246.765 314.452C247.429 314.621 247.563 315.481 247.168 317.029C246.555 317.816 245.945 318.131 245.336 317.976Z" fill="black"/>
<path d="M76.1408 68.2722L75.5362 66.8672L75.7379 66.1681L76.0381 66.0022L76.1327 64.7989L76.9539 62.8269L76.7881 62.5266C76.8273 62.3906 77.0142 62.0343 77.3488 61.4577L77.5778 59.7882L77.8781 59.6224C77.7619 59.4416 77.6583 59.2539 77.5671 59.0594L77.8299 58.9142L77.7016 58.5932L78.7939 56.447L78.628 56.1467L79.0313 54.7484L77.1204 54.4813L76.3517 53.7547C76.1781 54.3568 75.9456 54.6158 75.6543 54.5318L71.7506 53.406C71.1276 52.7214 70.9001 52.0878 71.0682 51.5052L71.9018 51.2407C77.9093 52.6577 80.9606 53.2011 81.0558 52.871L81.2508 53.1796L87.0575 54.381C88.8103 55.16 89.6363 55.7242 89.5355 56.0738L89.4683 56.3069C86.3363 56.3713 84.6926 56.3811 84.5372 56.3363C84.2265 56.2467 84.1327 55.9882 84.256 55.561L83.819 55.4349L83.693 55.8719L82.7607 55.6031L82.4206 55.0317C81.6128 54.988 81.1725 55.0924 81.0997 55.3449L80.8308 56.2771L80.7743 57.239L80.0097 58.2491L79.1864 62.7449L78.9152 62.9192C78.876 63.0551 78.748 63.7545 78.5311 65.0172L78.3271 64.9584L78.4638 65.2503C78.4246 65.3862 78.2054 65.891 77.8062 66.7646L77.6069 68.2217L77.403 68.1629L76.1408 68.2722ZM88.4061 72.1567L88.1036 71.5645L87.7658 71.7511L87.0666 71.5495L85.0514 69.6745L84.8922 68.3664L84.9678 68.1042L85.4631 68.2471L85.5303 68.014L84.7392 66.2712L84.8736 65.8051L85.2114 65.6185L85.2786 65.3855C84.8513 65.2622 84.6905 64.6163 84.7961 63.4477L85.0292 63.5149L85.6213 63.2124L85.8835 63.288L85.9591 63.0258C85.3182 62.841 85.065 62.5155 85.1994 62.0494L85.4913 61.9127L85.5669 61.6505L85.4011 61.3502L86.0307 61.0269C86.1315 60.6773 86.525 60.4437 87.2111 60.326C87.3455 59.8599 87.5778 59.6745 87.9079 59.7697L88.0194 58.5081L88.2524 58.5753L88.0782 58.3041L88.2798 57.605L88.9179 57.2526C92.2001 58.1992 94.0921 61.0483 94.5939 65.8001L94.2937 65.9659L94.3274 67.4903L94.0501 68.4516C93.4396 70.5685 92.0537 71.8728 89.8924 72.3644L88.4061 72.1567ZM89.2228 70.3096C90.7671 70.0607 91.6737 69.4702 91.9426 68.538L91.756 68.2002C91.8064 68.0254 92.152 67.4835 92.7929 66.5744C92.4239 66.468 92.4137 65.5184 92.7625 63.7257L90.6928 60.2889L91.0306 60.1023L89.9819 59.7998L89.9063 60.062L90.4306 60.2132C90.257 60.8153 89.731 61.3262 88.8526 61.7461C88.7518 62.0957 88.3518 62.1696 87.6526 61.968L86.977 62.3411L87.1636 62.6789L87.088 62.9411L86.4124 63.3143C86.0331 67.3281 86.7952 69.6094 88.6984 70.1583L89.2228 70.3096ZM94.7934 73.1468L94.6768 73.1132L93.9513 71.7995L94.1109 71.246C94.6565 70.6671 95.7645 70.6184 97.4347 71.1001L97.6 71.6211L97.4739 72.0581C97.1435 73.204 96.25 73.5668 94.7934 73.1468ZM110.352 78.6435C109.47 78.1999 108.955 77.5781 108.807 76.7781C108.321 76.6381 108.135 76.3738 108.247 75.9854L108.297 75.8106L108.531 75.6571C108.145 74.6622 107.967 72.907 107.998 70.3916L108.282 70.2841L107.991 69.7586L108.042 69.5838L108.559 69.3227L108.799 69.8022L108.909 69.4235L108.559 69.3227L108.252 68.8555L108.319 68.6224L108.878 68.2157L108.58 67.7194C109.028 66.1657 110.397 64.9932 112.686 64.2021L112.811 64.4273L113.415 64.4121L113.473 64.2082L112.92 64.0486L113.021 63.699C114.138 63.3269 115.104 63.2585 115.92 63.4938L115.869 63.6686L116.932 63.5962L117.056 63.8214C117.255 63.2056 117.471 62.9312 117.704 62.9984C119.51 63.5193 120.561 64.3591 120.858 65.5176C121.15 65.6016 121.436 66.0313 121.717 66.8066C122.106 66.9186 122.441 67.6149 122.724 68.8956L122.322 69.6317L122.329 70.2648L121.879 70.5135L123.015 70.8412L122.906 71.2199L122.352 71.0603L122.235 71.4681L122.788 71.6278L122.578 72.3561L122.031 72.8295L122.207 74.3L121.116 76.0048L121.24 76.23L121.173 76.4631L120.38 77.0234L120.563 77.2654L120.495 77.4984L118.464 78.7428C118.095 78.6364 117.86 78.7579 117.759 79.1075L117.517 79.2902L115.973 78.8449L115.713 79.748L114.81 79.4875C114.555 79.3508 114.389 78.977 114.313 78.366L114.555 78.1833L114.73 78.2338L114.605 78.0086L114.765 77.4551C114.974 77.0946 115.858 76.8761 117.415 76.7994L120.518 75.2329L120.583 74.2419L120.845 74.0968L120.692 73.8632L120.742 73.6884L121.013 73.5141L120.86 73.2805L120.969 72.9018L121.223 72.7858C120.898 69.6837 120.415 68.0403 119.774 67.8554C119.426 67.166 118.804 66.5134 117.909 65.8976L118.018 65.5188L117.814 65.46L117.581 65.6136L117.406 65.5631L117.515 65.1844L117.107 65.0668L117.355 65.7379L116.344 65.6355L116.394 65.4607L115.761 65.4674L115.258 65.133C115.146 65.5214 114.517 65.5504 113.371 65.22L113.554 65.462L113.495 65.6659C112.44 65.6771 111.389 66.2576 110.342 67.4072L110.014 68.5434C108.692 73.1268 109.047 76.0901 111.079 77.4334L111.662 77.6014C111.555 77.9704 111.629 78.1914 111.881 78.2642L111.627 78.3802L111.576 78.5549C111.507 78.4298 111.407 78.338 111.277 78.2793L110.352 78.6435ZM119.812 77.68L119.534 77.2212L118.951 77.0531L118.851 77.4027L119.134 77.2951C119.251 77.3288 119.477 77.457 119.812 77.68ZM112.289 78.1611L111.786 77.8266L111.954 77.244L112.333 77.3532L112.457 77.5784L112.69 77.6456L112.289 78.1611ZM125.522 83.0188C124.641 82.5751 124.126 81.9533 123.978 81.1533C123.492 81.0133 123.305 80.7491 123.418 80.3607L123.468 80.1859L123.702 80.0324C123.315 79.0374 123.138 77.2823 123.169 74.7669L123.452 74.6593L123.162 74.1339L123.213 73.9591L123.73 73.698L123.97 74.1775L124.079 73.7988L123.73 73.698L123.423 73.2308L123.49 72.9977L124.049 72.591L123.75 72.0946C124.198 70.5409 125.567 69.3685 127.857 68.5773L127.982 68.8025L128.585 68.7874L128.644 68.5835L128.091 68.4238L128.192 68.0742C129.309 67.7022 130.275 67.6338 131.091 67.869L131.04 68.0438L132.102 67.9715L132.227 68.1967C132.425 67.5808 132.641 67.3065 132.874 67.3737C134.681 67.8946 135.732 68.7343 136.029 69.8928C136.32 69.9768 136.607 70.4065 136.888 71.1818C137.276 71.2939 137.612 71.9902 137.895 73.2708L137.493 74.007L137.5 74.64L137.05 74.8888L138.186 75.2165L138.076 75.5952L137.523 75.4356L137.405 75.8434L137.959 76.003L137.749 76.7313L137.202 77.2047L137.378 78.6753L136.286 80.3801L136.411 80.6053L136.343 80.8384L135.551 81.3986L135.733 81.6406L135.666 81.8737L133.635 83.118C133.266 83.0116 133.031 83.1332 132.93 83.4828L132.688 83.6654L131.144 83.2202L130.884 84.1232L129.981 83.8628C129.726 83.7261 129.56 83.3523 129.484 82.7413L129.726 82.5586L129.9 82.609L129.776 82.3838L129.936 81.8303C130.145 81.4699 131.028 81.2514 132.586 81.1747L135.689 79.6082L135.753 78.6171L136.016 78.472L135.863 78.2384L135.913 78.0636L136.184 77.8894L136.031 77.6558L136.14 77.2771L136.394 77.1611C136.069 74.059 135.586 72.4155 134.945 72.2307C134.597 71.5413 133.975 70.8886 133.08 70.2728L133.189 69.8941L132.985 69.8353L132.751 69.9888L132.577 69.9384L132.686 69.5597L132.278 69.4421L132.526 70.1132L131.514 70.0107L131.565 69.8359L130.932 69.8427L130.429 69.5083C130.317 69.8967 129.688 69.9257 128.542 69.5952L128.724 69.8372L128.666 70.0411C127.611 70.0524 126.56 70.6329 125.513 71.7825L125.185 72.9186C123.863 77.502 124.218 80.4654 126.25 81.8087L126.833 81.9767C126.726 82.3457 126.799 82.5666 127.052 82.6394L126.797 82.7554L126.747 82.9302C126.678 82.8051 126.578 82.7132 126.448 82.6546L125.522 83.0188ZM134.983 82.0552L134.705 81.5964L134.122 81.4284L134.021 81.778L134.305 81.6704C134.421 81.704 134.647 81.8323 134.983 82.0552ZM127.46 82.5363L126.957 82.2019L127.125 81.6193L127.504 81.7285L127.628 81.9537L127.861 82.0209L127.46 82.5363ZM150.674 89.9884L150.324 89.8876L150.302 88.6506L150.077 88.775L149.203 88.523L149.295 88.2025L149.521 88.0781L149.726 86.0546L149.9 86.105L149.776 85.8798L149.81 85.7633L150.035 85.6389L150.003 85.0933L150.312 84.6776C150.38 84.0031 150.448 83.5493 150.515 83.3162L151.008 82.9218L150.742 82.5297L151.523 79.8204L151.749 79.696L151.624 79.4708L151.666 79.3252L151.892 79.2008L151.851 78.6843L152.673 76.4915L152.548 76.2663C152.582 76.1498 152.75 75.7879 153.051 75.1806L153.061 74.4893L153.379 74.0444L153.617 71.9044L153.842 71.78L154.541 71.9817C155.066 72.1329 155.093 73.3504 154.624 75.6343L154.399 75.7587C154.371 75.8558 154.32 76.2513 154.246 76.9452L154.071 76.8948L154.204 77.0909L153.691 78.8679L153.69 79.5301C153.545 79.5936 153.453 79.6933 153.414 79.8293L153.27 80.9867L153.045 81.1111L152.808 82.5889L152.89 82.9598L152.665 83.0842C152.631 83.2007 152.569 83.6351 152.478 84.3873L152.304 84.3368L152.428 84.562L152.336 84.8825L152.11 85.0069L152.235 85.2321L151.823 86.6595L151.421 87.3957L151.319 88.4074L151.075 89.2523L150.674 89.9884ZM143.338 84.0231L143.192 83.9811C141.367 83.4546 140.09 82.2658 139.361 80.4149L139.337 78.42C139.388 78.098 139.452 77.8011 139.531 77.5292C139.934 76.1309 140.617 75.476 141.58 75.5644L141.742 75.9896C141.091 76.4961 140.679 76.9768 140.506 77.4317L140.297 79.1387C140.38 80.3827 140.911 81.3877 141.889 82.1537L143.274 82.9318L144.536 82.8225C144.481 82.7224 144.467 82.6238 144.495 82.5267C145.038 81.7367 145.398 81.367 145.572 81.4174L146.043 79.786L146.604 78.4963L146.471 78.3003L146.68 78.2341L146.755 77.972C147.36 75.8745 146.954 74.6213 145.536 74.2124C145.322 74.1508 145.071 74.1099 144.783 74.0897C143.581 73.8063 142.47 74.159 141.448 75.1476L140.899 75.0838L140.92 74.6799C141.857 73.3301 143.314 72.8353 145.293 73.1956L146.283 73.4813C147.473 74.0978 147.987 74.6877 147.824 75.2509L147.645 75.3254C147.878 75.3926 148.117 75.8402 148.362 76.6682L148.437 76.8475C148.336 76.9028 148.272 76.979 148.244 77.0761L148.48 77.9013L148.412 78.1343C148.272 78.6199 148.109 79.004 147.922 79.2867C147.782 79.7723 147.603 80.2466 147.386 80.7097C147.099 80.9006 146.856 81.1249 146.655 81.3826L146.454 82.0817L146.261 82.3103C146.233 82.4074 146.132 82.6515 145.956 83.0425L145.697 83.2834C145.187 83.8097 144.401 84.0562 143.338 84.0231Z" fill="black"/>
<g clip-path="url(#clip1_876_861)">
<path d="M311.599 30.5411C315.903 26.6624 313.853 17.3616 310.907 15.2209C309.983 14.551 308.843 14.026 307.725 14.2614C306.607 14.4967 305.688 15.7685 306.168 16.8004C306.67 17.8821 308.15 17.9726 309.341 17.8957C311.613 17.7463 313.93 17.5608 316.012 16.6375C319.537 15.0715 321.972 11.315 321.963 7.45892" stroke="#FF8DF7" stroke-width="4.07332" stroke-linecap="round" stroke-linejoin="round"/>
</g>
<g clip-path="url(#clip2_876_861)">
<path d="M76.401 383.119C72.0968 379.24 74.1471 369.939 77.0934 367.799C78.0167 367.129 79.1573 366.604 80.2752 366.839C81.3931 367.074 82.3118 368.346 81.8321 369.378C81.3297 370.46 79.8497 370.55 78.6594 370.473C76.3874 370.324 74.0701 370.139 71.9882 369.215C68.4625 367.649 66.0276 363.893 66.0366 360.037" stroke="#F75555" stroke-width="4.07332" stroke-linecap="round" stroke-linejoin="round"/>
</g>
<defs>
<clipPath id="clip0_876_861">
<rect width="219.175" height="117" fill="white" transform="translate(103.875 102.63) rotate(15)"/>
</clipPath>
<clipPath id="clip1_876_861">
<rect width="20" height="27.1555" fill="white" transform="translate(304 5.42224)"/>
</clipPath>
<clipPath id="clip2_876_861">
<rect width="20" height="27.1555" fill="white" transform="matrix(-1 0 0 1 84 358)"/>
</clipPath>
</defs>
</svg>
