<svg width="16" height="16" viewBox="0 0 16 16" fill="none" xmlns="http://www.w3.org/2000/svg">
<path d="M7.37194 10.096C6.93436 9.97666 6.61611 9.63853 6.71556 9.22083C7.09348 7.72906 7.4515 6.19751 7.78964 4.52673C7.8692 4.1687 8.34656 3.91013 8.82393 4.02947C9.36097 4.14881 9.67921 4.54662 9.59965 4.94442C9.28141 6.6351 8.8836 8.30588 8.50569 9.67831C8.38635 10.1756 7.84931 10.2153 7.37194 10.096Z" fill="#FF5A5A"/>
<path d="M7.07407 13C7.66727 13 8.14815 12.5191 8.14815 11.9259C8.14815 11.3327 7.66727 10.8518 7.07407 10.8518C6.48088 10.8518 6 11.3327 6 11.9259C6 12.5191 6.48088 13 7.07407 13Z" fill="#FF5A5A"/>
</svg>
