<svg width="108" height="45" viewBox="0 0 108 45" fill="none" xmlns="http://www.w3.org/2000/svg">
<path d="M3.736 35.64C5.208 37.048 9.048 39.288 14.616 39.288C23.704 39.288 23.448 31.032 23.384 27.96V27.768C21.208 30.2 18.008 32.568 13.144 32.568C2.2 32.568 0.984 24.376 0.984 20.024V6.52H7.384V20.024C7.384 23.8 9.368 26.232 13.144 26.808C17.816 27.512 23.384 23.352 23.384 19.64V6.52H29.784V27.96C29.72 33.592 28.376 44.408 14.616 44.408C7.512 44.408 2.648 42.104 0.28 40.44L3.736 35.64ZM61.9662 26.872C60.6222 32.12 54.4142 35.768 47.1822 35.768C37.4542 35.768 31.9502 29.24 31.9502 21.112C31.9502 13.048 37.4542 6.52 47.1822 6.52C55.6302 6.52 61.5182 11.512 62.0942 18.168V22.968H38.4782C38.9902 27.512 41.6142 30.072 47.1822 30.072C50.8302 30.072 54.3502 28.92 55.1822 26.872H61.9662ZM38.6702 17.912H55.6942C55.3742 14.2 52.0462 12.216 47.1822 12.216C42.1902 12.216 39.5662 14.264 38.6702 17.912ZM67.3099 26.168C69.3579 28.024 76.3979 30.008 79.0859 30.008C83.5659 30.008 87.3419 30.264 88.3019 27.64C89.2619 25.08 85.3579 24.568 79.3419 23.8C71.9179 22.904 63.9179 21.944 64.6859 14.84C65.5819 6.136 77.1019 6.328 81.1339 6.584C86.8299 6.968 92.3339 9.336 93.9979 16.312H88.3019C87.7899 14.392 85.4219 12.984 80.7499 12.344C77.4219 11.896 71.5339 11.704 71.1499 14.776C70.8299 17.4 74.0939 17.912 80.1099 18.68C87.5339 19.576 96.1099 21.304 94.7659 28.152C93.2299 36.088 82.9899 35.704 79.0859 35.704C72.5579 35.704 65.3259 32.248 63.0219 29.496L67.3099 26.168ZM102.938 37.048C99.5456 37.048 98.2656 35.32 98.2656 33.208C98.2656 31.032 99.5456 29.304 102.938 29.304C106.458 29.304 107.738 31.032 107.738 33.208C107.738 35.32 106.458 37.048 102.938 37.048ZM98.8416 0.119999H106.522L105.882 25.784H99.4816L98.8416 0.119999Z" fill="#3E3E3E"/>
</svg>
