<svg width="48" height="21" viewBox="0 0 48 21" fill="none" xmlns="http://www.w3.org/2000/svg">
<path d="M5.23062 13.218H5.46827C6.26773 13.218 6.67843 13.8883 6.67843 14.795C6.67843 15.6383 6.28965 16.4159 5.46827 16.4159H5.01373C1.64281 16.417 3.05176e-05 14.299 3.05176e-05 11.4241C3.05176e-05 9.97628 3.05176e-05 7.81437 0.0646341 6.66996C0.108472 6.02162 0.561851 5.26483 1.94506 5.26483C3.32827 5.26483 3.78165 6.02162 3.78165 6.69073C3.78165 8.03125 3.69513 10.3431 3.69513 11.5314C3.69513 12.8281 4.42999 13.2168 5.22946 13.2168L5.23062 13.218ZM7.30485 6.77725C7.28293 6.10699 7.84475 5.26483 9.16336 5.26483C10.482 5.26483 11.0011 5.9997 11.0219 6.79917C11.0865 9.50098 10.978 12.3966 11.0219 15.0119C11.0865 19.3992 8.25545 21.0639 5.3379 20.9981C3.99853 20.9762 2.72261 20.7385 1.92314 20.1986C1.40401 19.9183 0.734897 19.2907 1.03715 18.2536C1.31864 17.3457 2.33384 16.9789 3.11139 17.3457C3.95469 17.7564 4.5592 17.821 5.40251 17.821C6.63459 17.821 7.26101 17.0435 7.34754 15.3788C7.45598 12.8719 7.39138 10.0836 7.3037 6.77725H7.30485Z" fill="#303030"/>
<path d="M18.7605 5.17834C21.6561 5.17834 24.3579 7.14529 24.4883 10.9915C24.5102 12.332 23.9045 13.1096 22.6517 13.1096H18.6532C17.8537 13.1096 17.4857 12.3966 17.4857 11.5972C17.4857 10.7977 17.961 10.019 18.6959 10.019H20.7493C20.7274 9.30605 20.3386 8.33353 18.8481 8.33353C17.3576 8.33353 16.4924 9.28413 16.4924 11.4887C16.4924 13.6933 17.4003 14.5355 18.9773 14.622C19.756 14.6647 20.664 14.5355 21.5061 14.0821C22.3702 13.6714 23.4073 13.9517 23.6888 15.0108C23.9484 16.0052 23.127 16.6755 22.7809 16.8693C21.7218 17.4957 20.2094 17.8418 18.7616 17.7553C14.4828 17.4957 12.7535 14.7939 12.7535 11.4876C12.7535 7.89977 14.8716 5.17719 18.7616 5.17719L18.7605 5.17834Z" fill="#303030"/>
<path d="M32.8729 13.6944C32.851 13.2618 32.2026 13.1107 30.7548 12.7646C28.8317 12.332 25.6973 11.4898 25.8276 8.76611C25.9568 6.08622 28.4429 5.22214 31.0144 5.1783C31.7931 5.15639 33.6723 5.20022 34.3853 5.32943C34.9898 5.43787 35.7685 6.21542 35.682 7.29638C35.6174 8.20429 34.8179 8.87455 33.8881 8.74419C33.3043 8.65767 31.5104 8.54923 31.079 8.57115C29.8042 8.61499 29.5446 8.78688 29.5446 9.13297C29.5446 9.43522 30.5391 9.63019 31.9004 9.97628C34.5364 10.6246 36.568 11.4022 36.6118 13.6725C36.6764 17.0227 33.3055 17.8002 30.5171 17.7137C29.3289 17.6699 27.535 17.3469 26.5406 16.7839C26.1091 16.5243 25.4596 15.7894 25.763 14.8169C26.1299 13.6287 27.34 13.5422 28.0749 13.7579C28.7659 13.9955 29.9126 14.2124 30.884 14.277C32.1588 14.3636 32.8936 14.2124 32.8717 13.6933L32.8729 13.6944Z" fill="#303030"/>
<path d="M42.5646 12.2213C41.6694 11.9686 41.0453 11.3134 41.2414 10.4712C41.9843 7.4706 42.7203 4.40193 43.4091 1.05754C43.5752 0.342284 44.5165 -0.172238 45.4844 0.0538746C46.5573 0.30306 47.1999 1.07484 47.0511 1.90546C46.4143 5.30753 45.5998 8.62424 44.8419 11.3987C44.6065 12.4093 43.5233 12.4901 42.5646 12.2224V12.2213Z" fill="#FF5A5A"/>
<path d="M41.9901 18.0148C43.1764 18.0148 44.1382 17.0531 44.1382 15.8668C44.1382 14.6804 43.1764 13.7187 41.9901 13.7187C40.8037 13.7187 39.842 14.6804 39.842 15.8668C39.842 17.0531 40.8037 18.0148 41.9901 18.0148Z" fill="#FF5A5A"/>
</svg>
