<svg width="67" height="30" viewBox="0 0 67 30" fill="none" xmlns="http://www.w3.org/2000/svg">
<path d="M7.27899 21.0417L0.264798 7.90322C-0.194522 7.13768 -0.0717176 6.95428 0.754419 6.55556L2.53109 5.69753C3.17382 5.42162 3.35723 5.45192 3.72564 6.15685L9.20877 16.4485L13.5882 5.97344C13.9248 5.23821 14.0476 5.1776 14.7525 5.42162L16.5898 6.15685C17.4159 6.49336 17.5084 6.61617 17.1719 7.4439L8.13702 29.1292C7.80051 29.9569 7.6155 29.9569 6.72876 29.5885L5.2583 28.9139C4.30936 28.5152 4.24716 28.394 4.58527 27.5662L7.28058 21.0417H7.27899Z" fill="#303030"/>
<path d="M34.417 14.7322C34.4473 15.5599 34.2033 15.7736 33.4361 15.8661L22.1653 16.7545C23.0233 20.5215 28.9642 20.185 31.6914 18.8374C32.2735 18.5615 32.3963 18.7768 32.4872 19.3573L32.7009 21.4099C32.7934 21.992 32.6403 22.0845 32.0582 22.2982C30.3118 23.0031 28.2289 23.279 26.7282 23.279C21.1844 23.279 18.0904 19.512 18.0904 14.3654C18.0904 9.8934 20.9691 5.63672 26.1763 5.63672C31.3836 5.63672 34.1698 9.19006 34.4154 14.7338L34.417 14.7322ZM30.4346 12.8024C30.0981 10.3527 28.5048 9.12627 26.2688 9.12627C23.7872 9.12627 22.0425 10.7801 21.8894 13.4451L30.4346 12.8024Z" fill="#303030"/>
<path d="M43.0228 19.8788C44.7373 19.8788 46.1168 19.4195 46.1168 18.2855C46.1168 17.0607 44.0037 16.5711 41.9814 15.8358C39.3786 14.9475 36.621 13.6302 36.621 10.7514C36.621 8.42294 38.3674 5.63672 43.758 5.63672C46.2077 5.63672 47.7404 6.06574 49.2093 6.80097C49.6686 7.01468 49.7611 7.26029 49.7308 7.74991L49.608 9.77219C49.5777 10.3846 49.3943 10.4771 48.8121 10.2012C47.6176 9.58878 46.1471 9.03696 44.0643 9.03696C42.1042 9.03696 40.7262 9.58878 40.7262 10.7833C40.7262 12.2538 43.4215 12.6828 45.8712 13.662C48.3831 14.6429 50.1901 15.9586 50.1901 18.4402C50.1901 21.5024 47.5554 23.279 43.4821 23.279C40.6943 23.279 39.0708 22.85 37.4488 22.0239C36.9895 21.7783 36.9895 21.4721 37.082 20.8596L37.3882 19.2664C37.4807 18.6843 37.6338 18.5615 38.2159 18.7768C39.7167 19.3892 41.5539 19.8788 43.0244 19.8788H43.0228Z" fill="#303030"/>
<path d="M58.0943 18.67C59.2043 19.1133 59.7513 20.2218 59.308 21.3302C58.8646 22.4402 57.7163 22.8389 56.6079 22.3955C55.442 21.9298 54.9109 20.8613 55.3543 19.7513C55.7977 18.6412 56.9284 18.2027 58.0943 18.6684V18.67ZM63.2951 0.595421C63.5327 -0.00265148 63.7831 -0.13343 64.4386 0.128127L66.3732 0.900039C67.0271 1.1616 67.118 1.42794 66.8803 2.02601L61.1373 16.4212C60.8996 17.0193 60.6492 17.1501 59.9937 16.8885L58.0592 16.1166C57.4053 15.855 57.3144 15.5887 57.552 14.9906L63.2951 0.595421Z" fill="#FF5A5A"/>
</svg>
