<svg width="44" height="44" viewBox="0 0 44 44" fill="none" xmlns="http://www.w3.org/2000/svg">
<circle cx="22" cy="22" r="21.5" stroke="#3E3E3E"/>
<path d="M29.5719 23.2081L28.5042 24.2758C28.2143 24.5657 27.7334 24.5657 27.4435 24.2758C27.1536 23.9859 27.1536 23.505 27.4435 23.2151L28.5112 22.1474C30.3639 20.2948 30.3639 17.2825 28.5112 15.4299C26.6586 13.5773 23.6464 13.5773 21.7937 15.4299L20.7331 16.4905C20.4432 16.7805 19.9623 16.7805 19.6724 16.4905C19.3825 16.2006 19.3754 15.7269 19.6724 15.4299L20.7331 14.3692C23.1726 11.9297 27.1324 11.9297 29.5719 14.3692C32.0114 16.8087 32.0114 20.7685 29.5719 23.2081Z" fill="#3E3E3E"/>
<path d="M24.2686 28.5113L23.208 29.572C20.7684 32.0115 16.8086 32.0115 14.3691 29.572C11.9296 27.1325 11.9296 23.1727 14.3691 20.7332L15.4298 19.6725C15.7197 19.3826 16.2005 19.3826 16.4904 19.6725C16.7804 19.9624 16.7804 20.4433 16.4904 20.7332L15.4298 21.7938C13.5772 23.6465 13.5772 26.6587 15.4298 28.5113C17.2824 30.364 20.2947 30.364 22.1473 28.5113L23.208 27.4507C23.4979 27.1608 23.9787 27.1608 24.2686 27.4507C24.5585 27.7406 24.5585 28.2214 24.2686 28.5113Z" fill="#3E3E3E"/>
<path d="M25.3293 19.6724L19.6724 25.3293C19.3825 25.6192 18.9017 25.6192 18.6118 25.3293C18.3218 25.0394 18.3218 24.5585 18.6118 24.2686L24.2686 18.6118C24.5585 18.3219 25.0394 18.3219 25.3293 18.6118C25.6192 18.9017 25.6192 19.3825 25.3293 19.6724Z" fill="#3E3E3E"/>
</svg>
