<svg width="106" height="106" viewBox="0 0 106 106" fill="none" xmlns="http://www.w3.org/2000/svg">
<path d="M31.5901 39.6992L39.1995 28L49.7418 38.7541L72.5373 36.1959L65.7426 59.9365L80 77.1268L66.6877 80.0597L62.9238 97.6085L47.591 91.9219L33.3988 104.191L22.8076 82.9764L2 79.3917L14.5954 55.9444L13.3081 38.2327L31.5901 39.6992Z" fill="#FFED69" stroke="#3E3E3E" stroke-width="2" stroke-miterlimit="10"/>
<path d="M38.5461 72.6654C36.7142 72.1525 35.4319 70.7969 35.8349 69.075C37.3553 62.9016 38.8758 56.6001 40.2863 49.7306C40.6344 48.2651 42.5578 47.2026 44.5545 47.6606C46.7528 48.1735 48.0717 49.7489 47.7786 51.4709C46.478 58.4685 44.7927 65.283 43.2356 70.9801C42.7593 73.0501 40.5245 73.215 38.5461 72.6654Z" fill="#FF5A5A" stroke="#3E3E3E" stroke-width="2"/>
<path d="M37.3736 84.5539C39.8118 84.5539 41.7884 82.5773 41.7884 80.1391C41.7884 77.7009 39.8118 75.7244 37.3736 75.7244C34.9354 75.7244 32.9589 77.7009 32.9589 80.1391C32.9589 82.5773 34.9354 84.5539 37.3736 84.5539Z" fill="#FF5A5A" stroke="#3E3E3E" stroke-width="2"/>
<path d="M86.5616 9.39779L89.3511 2L95.1875 7.95332L101.468 7.36266L98.5735 13.7955L103.995 19.6319L99.2226 20.6845L100.287 27.0881L92.4623 24.7314L86.8832 30.3104L83.9241 22.9126L76 20.4389L80.7779 15.5207L80.0585 5.67258L86.5616 9.39779Z" fill="#89F2D4" stroke="#3E3E3E" stroke-width="2" stroke-miterlimit="10"/>
</svg>
