<svg width="23" height="21" viewBox="0 0 23 21" fill="none" xmlns="http://www.w3.org/2000/svg">
<mask id="path-1-inside-1_1291_956" fill="white">
<path fill-rule="evenodd" clip-rule="evenodd" d="M4.8 0C2.14903 0 0 2.14903 0 4.8V14.4C0 17.051 2.14903 19.2 4.8 19.2H9.78571L10.4785 20.4C10.9404 21.2 12.0951 21.2 12.557 20.4L13.2498 19.2H17.4C20.051 19.2 22.2 17.051 22.2 14.4V4.8C22.2 2.14903 20.051 0 17.4 0H4.8Z"/>
</mask>
<path fill-rule="evenodd" clip-rule="evenodd" d="M4.8 0C2.14903 0 0 2.14903 0 4.8V14.4C0 17.051 2.14903 19.2 4.8 19.2H9.78571L10.4785 20.4C10.9404 21.2 12.0951 21.2 12.557 20.4L13.2498 19.2H17.4C20.051 19.2 22.2 17.051 22.2 14.4V4.8C22.2 2.14903 20.051 0 17.4 0H4.8Z" fill="white"/>
<path d="M9.78571 19.2L10.8249 18.6L10.4785 18H9.78571V19.2ZM10.4785 20.4L11.5178 19.8L11.5178 19.8L10.4785 20.4ZM12.557 20.4L11.5178 19.8L11.5178 19.8L12.557 20.4ZM13.2498 19.2V18H12.557L12.2106 18.6L13.2498 19.2ZM1.2 4.8C1.2 2.81177 2.81177 1.2 4.8 1.2V-1.2C1.48629 -1.2 -1.2 1.48629 -1.2 4.8H1.2ZM1.2 14.4V4.8H-1.2V14.4H1.2ZM4.8 18C2.81177 18 1.2 16.3882 1.2 14.4H-1.2C-1.2 17.7137 1.48629 20.4 4.8 20.4V18ZM9.78571 18H4.8V20.4H9.78571V18ZM11.5178 19.8L10.8249 18.6L8.74648 19.8L9.43929 21L11.5178 19.8ZM11.5178 19.8H11.5178L9.43929 21C10.3631 22.6 12.6725 22.6 13.5962 21L11.5178 19.8ZM12.2106 18.6L11.5178 19.8L13.5962 21L14.289 19.8L12.2106 18.6ZM17.4 18H13.2498V20.4H17.4V18ZM21 14.4C21 16.3882 19.3882 18 17.4 18V20.4C20.7137 20.4 23.4 17.7137 23.4 14.4H21ZM21 4.8V14.4H23.4V4.8H21ZM17.4 1.2C19.3882 1.2 21 2.81177 21 4.8H23.4C23.4 1.48629 20.7137 -1.2 17.4 -1.2V1.2ZM4.8 1.2H17.4V-1.2H4.8V1.2Z" fill="#676767" mask="url(#path-1-inside-1_1291_956)"/>
<path d="M10.2205 12.7336C9.67625 12.6114 9.173 12.8945 9.05077 13.4388C8.92853 13.983 9.26564 14.4396 9.80989 14.5619C10.3818 14.6903 10.8679 14.4186 10.9902 13.8744C11.1124 13.3301 10.7924 12.8621 10.2205 12.7336ZM12.9872 4.39845C13.0529 4.10561 12.9914 3.98874 12.6702 3.91661L11.7212 3.70347C11.4 3.63133 11.2946 3.70993 11.2287 4.0035L9.64268 11.065C9.57691 11.3579 9.63844 11.4747 9.95961 11.5469L10.9086 11.76C11.2298 11.8322 11.3352 11.7536 11.4012 11.46L12.9872 4.39845Z" fill="#FF5A5A"/>
</svg>
